M48
;Layer_Color=9474304
;FILE_FORMAT=2:5
INCH,TZ
;TYPE=PLATED
T1F00S00C0.02362
T2F00S00C0.02756
T3F00S00C0.02800
T4F00S00C0.03543
T5F00S00C0.04331
T6F00S00C0.11811
%
T01
X217563Y189000
X225437
T02
X287048Y87700
X306650
T03
X324500Y92000
X391000Y100000
X416250Y99750
X300500Y66000
X261500Y97000
X270000Y111000
X222162Y107162
X229000Y97500
X235000Y31000
X131000Y46000
X121500Y95500
X56000Y90331
X45000Y74500
X61000Y43500
X66000Y117000
X56000Y147500
X88500Y162000
X155000Y117000
X209000Y119000
X212000Y149000
X234000Y136000
X262000
X248500Y165500
X311500Y146500
X328000Y122500
X345500Y186000
X430000Y196000
T04
X231500Y69000
Y79000
X261500
Y69000
T05
X354000Y115000
X444000
Y105000
X147500Y96000
Y86000
Y76000
Y66000
X21500Y115000
Y125000
Y135000
Y145000
X111500Y165500
X121500
X131500
X141500
X200500Y233500
X210500
X220500
X230500
X251500
X261500
X271500
X281500
X354000Y125000
X444000
Y135000
Y145000
Y155000
T06
X449500Y17500
X17500
Y233500
X449500
M30
