M48
;Layer_Color=9474304
;FILE_FORMAT=2:5
INCH,TZ
;TYPE=PLATED
T1F00S00C0.02559
T2F00S00C0.03346
T3F00S00C0.03937
T4F00S00C0.13780
%
T01
X504846Y114665
Y124665
Y134665
Y144665
Y154665
Y164665
X225984Y128347
Y96063
X208347Y95665
Y85665
Y75665
Y105665
X202284Y175197
X192283
X182283
X172283
X70473Y179921
X55118Y185433
Y141339
X70473Y149606
X82346Y144665
Y134665
Y124665
Y154665
X96850Y227165
X91142Y255709
X54331Y255906
X57874Y227559
X261347Y243165
X271346
X281347
X291347
X312347
X322346
X332347
X342347
T02
X554724Y134370
Y144370
X554331Y212047
X48425Y326890
Y336890
X190748Y333071
X204528
X197638Y321260
X205630Y289764
X215630
X211417Y321260
X225197
X238976
X252756
X266535
X280315
X294094
X307874
X321654
X335433
X349213
X362992
X356102Y333071
X342323
X328543
X314764
X300984
X287205
X273425
X259646
X245866
X232087
X218307
X369882
X383662
X397441
X390551Y321260
X376772
X518110Y319409
Y329409
X519291Y281378
Y271378
X554331Y222047
X558268Y366772
Y376772
Y386772
X487402Y405905
X473622
X459842
X446063
X432283
X418504
X404724
X390945
X377165
X363386
X370276Y417717
X384055
X397835
X411614
X425394
X439173
X452953
X466732
X480512
X356496
X342717
X328937
X315158
X301378
X287598
X273819
X260039
X246260
X232480
X218701
X225590Y405905
X211811
X239370
X253150
X266929
X280709
X294488
X308268
X322047
X335827
X349606
X198031
X184252
X170472
X156693
X142913
X129134
X115354
X101575
X87795
X74016
X80905Y417717
X94685
X108465
X122244
X136024
X149803
X163583
X177362
X191142
X204921
T03
X22835Y180709
Y190709
Y200709
Y210709
X32835
Y200709
Y190709
Y180709
Y220709
X22835
T04
X19685Y25197
X78347Y27165
X510347
X568898Y25197
X78347Y243165
X510347
X568898Y451968
X19685
M30
