M48
;Layer_Color=9474304
;FILE_FORMAT=2:3
INCH,TZ
;TYPE=PLATED
T1F00S00C0.024
T2F00S00C0.028
T3F00S00C0.035
T4F00S00C0.043
T5F00S00C0.118
%
T01
X2176Y1890
X2254
T02
X3245Y920
X3910Y1000
X4162Y998
X3066Y877
X2870
X2615Y970
X2700Y1110
X2222Y1072
X2290Y975
X2350Y310
X3005Y660
X1310Y460
X1215Y955
X560Y903
X450Y745
X610Y435
X660Y1170
X560Y1475
X885Y1620
X1550Y1170
X2090Y1190
X2120Y1490
X2340Y1360
X2620
X2485Y1655
X3115Y1465
X3280Y1225
X3455Y1860
X4300Y1960
T03
X2315Y690
Y790
X2615
Y690
T04
X3540Y1150
X4440
Y1050
X1475Y960
Y860
Y760
Y660
X215Y1150
Y1250
Y1350
Y1450
X1115Y1655
X1215
X1315
X1415
X2005Y2335
X2105
X2205
X2305
X2515
X2615
X2715
X2815
X3540Y1250
X4440
Y1350
Y1450
Y1550
T05
X4495Y175
X175
Y2335
X4495
M30
