M48
;Layer_Color=9474304
;FILE_FORMAT=2:5
INCH,TZ
;TYPE=PLATED
T1F00S00C0.01968
T2F00S00C0.02362
T3F00S00C0.04331
%
T01
X24500Y26000
X53000Y41000
X176500Y48000
X185500Y67500
X209000Y79000
X209390Y115610
X202500Y112657
X195610Y115610
X192657Y122500
X195610Y129390
X202500Y132343
X209390Y129390
X212343Y122500
X170000Y115500
X191000Y167500
X226000Y56000
X142000Y71000
X113953Y88000
Y110110
X120843Y107158
X127732Y110110
X130685Y117000
X127732Y123890
X120843Y126842
X113953Y123890
X111000Y117000
X92000Y121000
X70000
X68000Y140000
X58500Y133000
X46000Y104000
X94000Y92500
X114220Y140500
X121110Y137547
X128000Y140500
X130953Y147390
X128000Y154279
X121110Y157232
X114220Y154279
X111268Y147390
X133500Y191500
X152000Y195000
X154500Y185500
X159000Y172000
X150000Y117000
X63890Y177610
X66843Y184500
X63890Y191390
X57000Y194343
X50110Y191390
X47157Y184500
X50110Y177610
X57000Y174657
T02
X20500Y168500
X60000Y148000
T03
X18500Y11000
X28500
X38500
X48500
X58500
X68500
X78500
X88500
X98500
X108500
X118500
X128500
X138500
X148500
M30
