G04 Layer_Physical_Order=1*
G04 Layer_Color=5514966*
%FSLAX44Y44*%
%MOMM*%
G71*
G01*
G75*
%ADD10R,1.6000X1.2000*%
%ADD11R,0.8500X0.8500*%
%ADD12R,0.8500X0.8500*%
%ADD13R,1.6000X1.0000*%
G04:AMPARAMS|DCode=14|XSize=1mm|YSize=1.5mm|CornerRadius=0.125mm|HoleSize=0mm|Usage=FLASHONLY|Rotation=90.000|XOffset=0mm|YOffset=0mm|HoleType=Round|Shape=RoundedRectangle|*
%AMROUNDEDRECTD14*
21,1,1.0000,1.2500,0,0,90.0*
21,1,0.7500,1.5000,0,0,90.0*
1,1,0.2500,0.6250,0.3750*
1,1,0.2500,0.6250,-0.3750*
1,1,0.2500,-0.6250,-0.3750*
1,1,0.2500,-0.6250,0.3750*
%
%ADD14ROUNDEDRECTD14*%
%ADD15O,1.3500X0.5500*%
%ADD16O,0.5500X1.3500*%
%ADD17R,1.0000X1.6000*%
%ADD18R,2.4000X2.0000*%
%ADD19R,1.2000X1.6000*%
%ADD20R,1.9812X0.5588*%
G04:AMPARAMS|DCode=21|XSize=1.97mm|YSize=0.6mm|CornerRadius=0.075mm|HoleSize=0mm|Usage=FLASHONLY|Rotation=90.000|XOffset=0mm|YOffset=0mm|HoleType=Round|Shape=RoundedRectangle|*
%AMROUNDEDRECTD21*
21,1,1.9700,0.4500,0,0,90.0*
21,1,1.8200,0.6000,0,0,90.0*
1,1,0.1500,0.2250,0.9100*
1,1,0.1500,0.2250,-0.9100*
1,1,0.1500,-0.2250,-0.9100*
1,1,0.1500,-0.2250,0.9100*
%
%ADD21ROUNDEDRECTD21*%
G04:AMPARAMS|DCode=22|XSize=1.97mm|YSize=0.6mm|CornerRadius=0.075mm|HoleSize=0mm|Usage=FLASHONLY|Rotation=0.000|XOffset=0mm|YOffset=0mm|HoleType=Round|Shape=RoundedRectangle|*
%AMROUNDEDRECTD22*
21,1,1.9700,0.4500,0,0,0.0*
21,1,1.8200,0.6000,0,0,0.0*
1,1,0.1500,0.9100,-0.2250*
1,1,0.1500,-0.9100,-0.2250*
1,1,0.1500,-0.9100,0.2250*
1,1,0.1500,0.9100,0.2250*
%
%ADD22ROUNDEDRECTD22*%
%ADD23R,1.6002X0.3556*%
%ADD24R,1.0000X0.6000*%
G04:AMPARAMS|DCode=25|XSize=1mm|YSize=1.5mm|CornerRadius=0.125mm|HoleSize=0mm|Usage=FLASHONLY|Rotation=0.000|XOffset=0mm|YOffset=0mm|HoleType=Round|Shape=RoundedRectangle|*
%AMROUNDEDRECTD25*
21,1,1.0000,1.2500,0,0,0.0*
21,1,0.7500,1.5000,0,0,0.0*
1,1,0.2500,0.3750,-0.6250*
1,1,0.2500,-0.3750,-0.6250*
1,1,0.2500,-0.3750,0.6250*
1,1,0.2500,0.3750,0.6250*
%
%ADD25ROUNDEDRECTD25*%
%ADD26R,1.5000X1.5000*%
%ADD27R,2.5000X2.5000*%
%ADD28C,0.4500*%
%ADD29C,0.6000*%
%ADD30C,0.3500*%
%ADD31C,1.0000*%
%ADD32C,2.0000*%
%ADD33C,1.4000*%
%ADD34C,1.2000*%
%ADD35C,0.8000*%
%ADD36C,0.5000*%
%ADD37C,3.0000*%
%ADD38C,2.0000*%
%ADD39R,2.0000X2.0000*%
%ADD40R,2.0000X2.0000*%
%ADD41C,1.3000*%
%ADD42C,1.5000*%
%ADD43C,1.0000*%
%ADD44P,1.0824X8X202.5*%
%ADD45C,1.2700*%
G36*
X1179672Y575310D02*
X1155143D01*
X1154715Y576476D01*
X1154721Y576580D01*
X1155662Y577364D01*
X1156586Y578234D01*
X1157456Y579158D01*
X1158268Y580133D01*
X1159020Y581155D01*
X1159710Y582221D01*
X1160333Y583326D01*
X1160889Y584467D01*
X1161374Y585640D01*
X1161788Y586840D01*
X1162129Y588062D01*
X1162395Y589303D01*
X1162586Y590558D01*
X1162701Y591822D01*
X1162740Y593090D01*
X1162701Y594358D01*
X1162586Y595622D01*
X1162395Y596877D01*
X1162129Y598118D01*
X1161788Y599340D01*
X1161374Y600540D01*
X1160889Y601713D01*
X1160333Y602854D01*
X1159710Y603959D01*
X1159020Y605025D01*
X1158268Y606047D01*
X1157456Y607022D01*
X1156586Y607946D01*
X1155662Y608816D01*
X1154687Y609628D01*
X1153665Y610381D01*
X1152599Y611070D01*
X1151494Y611693D01*
X1150353Y612249D01*
X1149180Y612734D01*
X1147980Y613148D01*
X1146758Y613489D01*
X1145517Y613755D01*
X1144262Y613946D01*
X1142999Y614061D01*
X1141730Y614100D01*
X1140462Y614061D01*
X1139198Y613946D01*
X1137943Y613755D01*
X1136702Y613489D01*
X1135480Y613148D01*
X1134280Y612734D01*
X1133107Y612249D01*
X1131966Y611693D01*
X1130861Y611070D01*
X1129795Y610381D01*
X1128773Y609628D01*
X1127798Y608816D01*
X1126874Y607946D01*
X1126004Y607022D01*
X1125220Y606081D01*
X1125116Y606075D01*
X1123950Y606502D01*
Y631032D01*
X1179672D01*
Y575310D01*
D02*
G37*
G36*
X754000Y419100D02*
X764540D01*
Y416560D01*
X754000D01*
Y409290D01*
X756881D01*
X757367Y408117D01*
X739328Y390078D01*
X735711D01*
Y382538D01*
X734441D01*
Y381268D01*
X723901D01*
Y374998D01*
Y363538D01*
X720441D01*
Y359440D01*
X701230D01*
Y359410D01*
X693230D01*
Y359440D01*
X671230D01*
Y357787D01*
X670644Y357254D01*
X669960Y356951D01*
X669299Y357195D01*
X668365Y357458D01*
X667413Y357647D01*
X666450Y357761D01*
X665480Y357799D01*
X664510Y357761D01*
X663547Y357647D01*
X662595Y357458D01*
X661661Y357195D01*
X660750Y356859D01*
X659869Y356452D01*
X659022Y355978D01*
X658215Y355439D01*
X657453Y354838D01*
X656740Y354179D01*
X656082Y353467D01*
X655481Y352705D01*
X654942Y351898D01*
X654468Y351051D01*
X654061Y350170D01*
X653725Y349259D01*
X653462Y348325D01*
X653273Y347373D01*
X653159Y346410D01*
X653120Y345440D01*
X653159Y344470D01*
X653273Y343507D01*
X653462Y342555D01*
X653725Y341621D01*
X654061Y340710D01*
X654468Y339829D01*
X654942Y338982D01*
X655481Y338175D01*
X656082Y337413D01*
X656740Y336701D01*
X657453Y336042D01*
X658215Y335441D01*
X659022Y334902D01*
X659869Y334428D01*
X660750Y334021D01*
X661661Y333685D01*
X662595Y333422D01*
X663547Y333233D01*
X664510Y333119D01*
X665480Y333080D01*
X666450Y333119D01*
X667413Y333233D01*
X668365Y333422D01*
X669299Y333685D01*
X669960Y333929D01*
X670644Y333626D01*
X671230Y333093D01*
Y331440D01*
X674231D01*
Y329819D01*
X674231Y329819D01*
X674268Y329058D01*
X674380Y328305D01*
X674565Y327567D01*
X674821Y326850D01*
X675147Y326161D01*
X675538Y325508D01*
X675992Y324897D01*
X676503Y324332D01*
X685012Y315824D01*
X685012Y315823D01*
X685577Y315312D01*
X686188Y314858D01*
X686841Y314467D01*
X687530Y314141D01*
X688247Y313885D01*
X688985Y313700D01*
X689738Y313588D01*
X690499Y313551D01*
X690499Y313551D01*
X712408D01*
X713128Y312281D01*
X713120Y312268D01*
X712794Y311579D01*
X712538Y310862D01*
X712353Y310124D01*
X712241Y309371D01*
X712204Y308610D01*
Y308471D01*
X711581Y307848D01*
Y304038D01*
X709997D01*
X709927Y304074D01*
X709201Y304375D01*
X708452Y304612D01*
X707684Y304782D01*
X706905Y304884D01*
X706120Y304919D01*
X699770D01*
X698985Y304884D01*
X698206Y304782D01*
X697438Y304612D01*
X696689Y304375D01*
X695963Y304074D01*
X695893Y304038D01*
X677291D01*
X667131Y314198D01*
X654431D01*
X643001Y325628D01*
X643001Y359918D01*
X708533Y425450D01*
X754000D01*
Y419100D01*
D02*
G37*
G36*
X828391Y323550D02*
X854581D01*
Y307558D01*
Y299849D01*
X854464Y299566D01*
X851311D01*
Y300288D01*
X823311D01*
Y299806D01*
X814451D01*
X813587Y299772D01*
X812729Y299671D01*
X812161Y299558D01*
X801782D01*
Y306947D01*
X804404D01*
X804404Y306947D01*
X805165Y306984D01*
X805918Y307096D01*
X806656Y307281D01*
X807373Y307537D01*
X808062Y307863D01*
X808715Y308254D01*
X809326Y308708D01*
X809891Y309219D01*
X815687Y315016D01*
X815721Y315014D01*
X816585Y315049D01*
X817443Y315150D01*
X818291Y315319D01*
X819123Y315553D01*
X819934Y315853D01*
X820719Y316214D01*
X821473Y316637D01*
X822192Y317117D01*
X822870Y317652D01*
X823505Y318239D01*
X824092Y318874D01*
X824627Y319552D01*
X825107Y320271D01*
X825530Y321025D01*
X825891Y321810D01*
X826191Y322621D01*
X826425Y323453D01*
X826588Y324272D01*
X828391D01*
Y323550D01*
D02*
G37*
G36*
X860300Y406950D02*
X862300D01*
Y406340D01*
X874021D01*
X874706Y405997D01*
X875564Y405642D01*
X876445Y405349D01*
X877345Y405119D01*
X878259Y404954D01*
X879182Y404855D01*
X880110Y404822D01*
X901392D01*
X950922Y355292D01*
Y331268D01*
X915160D01*
Y333500D01*
X883160D01*
Y330588D01*
X882581Y329558D01*
X880157D01*
X879941Y329566D01*
X879030D01*
X878752Y330321D01*
X878390Y331106D01*
X877967Y331860D01*
X877487Y332579D01*
X876952Y333257D01*
X876365Y333892D01*
X867193Y343064D01*
X866558Y343651D01*
X865880Y344186D01*
X865161Y344666D01*
X864407Y345089D01*
X863622Y345451D01*
X862811Y345750D01*
X861979Y345984D01*
X861131Y346153D01*
X860273Y346255D01*
X859409Y346288D01*
X856391D01*
Y358076D01*
X856391Y358999D01*
X855980Y359410D01*
X855580Y359010D01*
X855126Y359010D01*
X852931D01*
Y366280D01*
X842391D01*
X831851D01*
Y359010D01*
X826261D01*
Y364010D01*
X815721D01*
X805181D01*
Y357740D01*
X801770D01*
X801721Y357789D01*
Y346280D01*
Y341788D01*
X773780D01*
Y332740D01*
X773780D01*
Y332740D01*
X749606Y310257D01*
X748442Y310765D01*
Y326232D01*
Y341788D01*
X748441D01*
Y363538D01*
Y371538D01*
Y390692D01*
X752119Y394370D01*
X754000D01*
Y387100D01*
X764540D01*
X775080D01*
Y394370D01*
X778510D01*
Y395955D01*
X858932D01*
Y405925D01*
X860202Y406954D01*
X860300Y406950D01*
D02*
G37*
G36*
X773780Y324944D02*
Y319628D01*
Y309765D01*
X771779D01*
X771779Y309765D01*
X771018Y309728D01*
X770265Y309616D01*
X769527Y309431D01*
X768810Y309175D01*
X768121Y308849D01*
X767468Y308458D01*
X766857Y308004D01*
X766292Y307493D01*
X766292Y307492D01*
X759434Y300635D01*
X758923Y300070D01*
X758469Y299459D01*
X758078Y298806D01*
X757752Y298117D01*
X757496Y297400D01*
X757311Y296662D01*
X757199Y295909D01*
X757162Y295148D01*
X757162Y295147D01*
Y242482D01*
X745197Y230517D01*
X738901D01*
X738613Y230882D01*
X737947Y231604D01*
X737225Y232270D01*
X736454Y232878D01*
X735637Y233424D01*
X734780Y233904D01*
X733888Y234315D01*
X732967Y234655D01*
X732021Y234922D01*
X731058Y235114D01*
X730082Y235229D01*
X729101Y235268D01*
X728120Y235229D01*
X727144Y235114D01*
X726181Y234922D01*
X725235Y234655D01*
X724314Y234315D01*
X723422Y233904D01*
X722565Y233424D01*
X721748Y232878D01*
X720977Y232270D01*
X720255Y231604D01*
X719589Y230882D01*
X718980Y230111D01*
X718435Y229294D01*
X717955Y228437D01*
X717544Y227545D01*
X717204Y226624D01*
X716937Y225678D01*
X716745Y224715D01*
X716630Y223739D01*
X716591Y222758D01*
X716630Y221777D01*
X716745Y220801D01*
X716937Y219838D01*
X717204Y218892D01*
X717544Y217971D01*
X717955Y217079D01*
X718435Y216222D01*
X718980Y215405D01*
X719589Y214634D01*
X720255Y213912D01*
X720977Y213246D01*
X721342Y212958D01*
Y202020D01*
X718080D01*
Y181520D01*
X738580D01*
Y184980D01*
X741060D01*
Y191770D01*
Y198560D01*
X738580D01*
Y202020D01*
X736860D01*
Y212958D01*
X737225Y213246D01*
X737947Y213912D01*
X738613Y214634D01*
X738901Y214999D01*
X748410D01*
X748411Y214999D01*
X749172Y215036D01*
X749925Y215148D01*
X750663Y215333D01*
X751380Y215589D01*
X752069Y215915D01*
X752722Y216306D01*
X753334Y216760D01*
X753898Y217271D01*
X764397Y227771D01*
X764782Y227836D01*
X765966Y227543D01*
X766089Y227337D01*
X766543Y226726D01*
X766909Y226322D01*
X766727Y225678D01*
X766535Y224715D01*
X766420Y223739D01*
X766381Y222758D01*
X766420Y221777D01*
X766535Y220801D01*
X766727Y219838D01*
X766994Y218892D01*
X767334Y217971D01*
X767745Y217079D01*
X768225Y216222D01*
X768771Y215405D01*
X769379Y214634D01*
X770045Y213912D01*
X770767Y213246D01*
X771538Y212638D01*
X772355Y212092D01*
X773212Y211612D01*
X774104Y211201D01*
X775025Y210861D01*
X775971Y210594D01*
X776934Y210402D01*
X777909Y210287D01*
X778891Y210248D01*
X779873Y210287D01*
X780848Y210402D01*
X781811Y210594D01*
X782757Y210861D01*
X783678Y211201D01*
X784570Y211612D01*
X785427Y212092D01*
X786244Y212638D01*
X787015Y213246D01*
X787314Y213522D01*
X789152Y211684D01*
Y202020D01*
X786690D01*
Y198560D01*
X784210D01*
Y191770D01*
Y184980D01*
X786690D01*
Y181520D01*
X807190D01*
Y202020D01*
X804670D01*
Y214897D01*
X804670Y214898D01*
X804633Y215658D01*
X804521Y216412D01*
X804336Y217150D01*
X804080Y217867D01*
X803754Y218556D01*
X803363Y219209D01*
X802909Y219820D01*
X802398Y220385D01*
X802397Y220385D01*
X794538Y228245D01*
X793973Y228756D01*
X793362Y229210D01*
X792709Y229601D01*
X792020Y229927D01*
X791303Y230183D01*
X790565Y230368D01*
X789812Y230480D01*
X789051Y230517D01*
X789051Y230517D01*
X788691D01*
X788403Y230882D01*
X787737Y231604D01*
X787015Y232270D01*
X786244Y232878D01*
X785427Y233424D01*
X784570Y233904D01*
X783678Y234315D01*
X782757Y234655D01*
X781811Y234922D01*
X780848Y235114D01*
X780300Y235178D01*
Y281528D01*
X797911D01*
Y277558D01*
X797560Y277207D01*
X797560Y264828D01*
X801371D01*
Y259828D01*
X822451D01*
Y264828D01*
X826771D01*
Y257558D01*
X837311D01*
X847851D01*
Y264828D01*
X847851Y264828D01*
X847851D01*
X848646Y265716D01*
X851311Y268381D01*
Y277549D01*
X882791D01*
X883655Y277584D01*
X885147Y276091D01*
X919615D01*
X919930Y275964D01*
X920344Y252941D01*
X816302Y148898D01*
X617220D01*
X616292Y148865D01*
X615369Y148766D01*
X614455Y148601D01*
X613555Y148371D01*
X612674Y148078D01*
X611816Y147723D01*
X610986Y147307D01*
X610221Y146853D01*
X596820Y146658D01*
X586500D01*
X586284Y146650D01*
X582900D01*
Y146047D01*
X582287Y145821D01*
X581502Y145459D01*
X580748Y145036D01*
X580029Y144556D01*
X579351Y144021D01*
X578716Y143434D01*
X568796Y133514D01*
X568754Y133469D01*
X552450D01*
X551665Y133434D01*
X550886Y133332D01*
X550535Y133254D01*
X540354D01*
X539869Y134323D01*
Y214708D01*
X563801Y238641D01*
X573212D01*
X573633Y238252D01*
X574395Y237651D01*
X575202Y237112D01*
X576049Y236638D01*
X576930Y236231D01*
X577841Y235895D01*
X578775Y235632D01*
X579727Y235443D01*
X580690Y235329D01*
X581660Y235291D01*
X582630Y235329D01*
X583593Y235443D01*
X584545Y235632D01*
X585479Y235895D01*
X586390Y236231D01*
X587271Y236638D01*
X588118Y237112D01*
X588925Y237651D01*
X589687Y238252D01*
X590108Y238641D01*
X598840D01*
Y233650D01*
X650840D01*
Y238641D01*
X654585D01*
X654812Y238353D01*
X655471Y237640D01*
X656183Y236982D01*
X656945Y236381D01*
X657752Y235842D01*
X658599Y235368D01*
X659480Y234961D01*
X660391Y234625D01*
X661325Y234362D01*
X662277Y234173D01*
X663240Y234059D01*
X664210Y234021D01*
X665180Y234059D01*
X666143Y234173D01*
X667095Y234362D01*
X668029Y234625D01*
X668940Y234961D01*
X669821Y235368D01*
X670668Y235842D01*
X671475Y236381D01*
X672237Y236982D01*
X672950Y237640D01*
X673608Y238353D01*
X673836Y238641D01*
X675640D01*
X676425Y238676D01*
X677204Y238778D01*
X677972Y238948D01*
X678721Y239185D01*
X679447Y239485D01*
X680144Y239848D01*
X680807Y240271D01*
X681431Y240749D01*
X682010Y241280D01*
X713760Y273030D01*
X714291Y273609D01*
X714769Y274233D01*
X715192Y274896D01*
X715555Y275593D01*
X715855Y276319D01*
X716092Y277068D01*
X716109Y277145D01*
X720491Y281528D01*
X748442D01*
Y285249D01*
X748681Y285648D01*
X749007Y286337D01*
X749263Y287054D01*
X749448Y287792D01*
X749560Y288545D01*
X749597Y289306D01*
X749560Y290067D01*
X749448Y290820D01*
X749263Y291558D01*
X749007Y292275D01*
X748681Y292964D01*
X748442Y293363D01*
Y301402D01*
X772510Y325470D01*
X773780Y324944D01*
D02*
G37*
G36*
X445770Y344170D02*
X488950Y300990D01*
Y6508D01*
X69850D01*
Y62230D01*
Y69850D01*
X6508D01*
Y511061D01*
X6780Y512218D01*
X7778Y512218D01*
X136079D01*
Y561043D01*
X70997D01*
X69850Y561340D01*
X69850Y562313D01*
Y631032D01*
X445770D01*
X445770Y344170D01*
D02*
G37*
G36*
X1116330Y567690D02*
X1116330Y563880D01*
X1115183Y563582D01*
X1049450D01*
Y514758D01*
X1178402D01*
X1178749Y514758D01*
X1179672Y513922D01*
Y69850D01*
X1116330D01*
Y62230D01*
Y6508D01*
X505460D01*
Y85047D01*
X505562Y85105D01*
X506730Y85381D01*
X506971Y85003D01*
X507449Y84379D01*
X507980Y83800D01*
X524490Y67290D01*
X525069Y66759D01*
X525693Y66281D01*
X526356Y65858D01*
X527053Y65495D01*
X527779Y65195D01*
X528528Y64958D01*
X529296Y64788D01*
X530075Y64686D01*
X530860Y64651D01*
X540354D01*
Y52166D01*
Y39466D01*
X543814D01*
Y36830D01*
X568706D01*
Y39466D01*
X572166D01*
Y52166D01*
Y64866D01*
Y77566D01*
Y90266D01*
Y107854D01*
X568706D01*
Y110490D01*
X556260D01*
Y113030D01*
X568706D01*
Y115451D01*
X572660D01*
X573178Y115260D01*
X574010Y115026D01*
X574858Y114857D01*
X575716Y114755D01*
X576580Y114721D01*
X577444Y114755D01*
X578302Y114857D01*
X579150Y115026D01*
X579982Y115260D01*
X580793Y115560D01*
X581578Y115921D01*
X582332Y116344D01*
X583051Y116824D01*
X583729Y117359D01*
X584364Y117946D01*
X585187Y118768D01*
X586360Y118282D01*
Y113030D01*
Y106920D01*
X607440D01*
Y113190D01*
X607280D01*
Y124650D01*
X610687D01*
X610986Y124473D01*
X611816Y124057D01*
X612674Y123702D01*
X613555Y123409D01*
X614455Y123179D01*
X615369Y123014D01*
X616292Y122915D01*
X617220Y122882D01*
X821690D01*
X822618Y122915D01*
X823541Y123014D01*
X824455Y123179D01*
X825355Y123409D01*
X826236Y123702D01*
X827094Y124057D01*
X827924Y124473D01*
X828723Y124947D01*
X829486Y125476D01*
X830209Y126059D01*
X830888Y126692D01*
X942648Y238452D01*
X942728Y238537D01*
X942812Y238619D01*
X943045Y238878D01*
X943281Y239131D01*
X943354Y239222D01*
X943433Y239310D01*
X943647Y239585D01*
X943864Y239855D01*
X943930Y239950D01*
X944002Y240043D01*
X944196Y240333D01*
X944393Y240617D01*
X944453Y240718D01*
X944518Y240815D01*
X944690Y241117D01*
X944867Y241416D01*
X944920Y241521D01*
X944977Y241622D01*
X945127Y241935D01*
X945283Y242246D01*
X945328Y242355D01*
X945378Y242460D01*
X945505Y242783D01*
X945638Y243104D01*
X945675Y243215D01*
X945718Y243324D01*
X945822Y243656D01*
X945931Y243985D01*
X945960Y244099D01*
X945995Y244210D01*
X946075Y244548D01*
X946161Y244885D01*
X946182Y245000D01*
X946209Y245114D01*
X946264Y245457D01*
X946326Y245799D01*
X946338Y245915D01*
X946357Y246031D01*
X946388Y246375D01*
X946425Y246722D01*
X946429Y246840D01*
X946440Y246956D01*
X946446Y247302D01*
X946458Y247650D01*
X946454Y247767D01*
X946456Y247884D01*
X945441Y304346D01*
X946330Y305252D01*
X949930D01*
Y304990D01*
X977930D01*
Y305109D01*
X978217Y306260D01*
X1006217D01*
Y306492D01*
X1008380D01*
X1009244Y306525D01*
X1010102Y306627D01*
X1010332Y306673D01*
X1011602Y305820D01*
Y302550D01*
X1011635Y301888D01*
X1011732Y301232D01*
X1011893Y300588D01*
X1012116Y299964D01*
X1012400Y299364D01*
X1012741Y298795D01*
X1013136Y298263D01*
X1013581Y297771D01*
X1014073Y297326D01*
X1014605Y296931D01*
X1015216Y296298D01*
X1015314Y295612D01*
X1015175Y295203D01*
X1015091Y294780D01*
X1015063Y294350D01*
Y293370D01*
X1039857D01*
Y294350D01*
X1039829Y294780D01*
X1039745Y295203D01*
X1039606Y295612D01*
X1039704Y296298D01*
X1040315Y296931D01*
X1040847Y297326D01*
X1041339Y297771D01*
X1041784Y298263D01*
X1042179Y298795D01*
X1042520Y299364D01*
X1042804Y299964D01*
X1043027Y300588D01*
X1043188Y301232D01*
X1043286Y301888D01*
X1043318Y302550D01*
Y307050D01*
X1043286Y307712D01*
X1043188Y308368D01*
X1043027Y309012D01*
X1042804Y309636D01*
X1042520Y310236D01*
X1042179Y310805D01*
X1041923Y311150D01*
X1042179Y311495D01*
X1042520Y312064D01*
X1042804Y312664D01*
X1043027Y313288D01*
X1043188Y313932D01*
X1043286Y314588D01*
X1043318Y315250D01*
Y319750D01*
X1043286Y320412D01*
X1043188Y321068D01*
X1043027Y321712D01*
X1042804Y322336D01*
X1042520Y322936D01*
X1042179Y323505D01*
X1041923Y323850D01*
X1042179Y324195D01*
X1042520Y324764D01*
X1042804Y325364D01*
X1043027Y325988D01*
X1043188Y326632D01*
X1043286Y327288D01*
X1043318Y327950D01*
Y332450D01*
X1043286Y333112D01*
X1043188Y333768D01*
X1043027Y334412D01*
X1042804Y335036D01*
X1042520Y335636D01*
X1042179Y336205D01*
X1041784Y336737D01*
X1041339Y337229D01*
X1040847Y337674D01*
X1040315Y338069D01*
X1039746Y338410D01*
X1039146Y338694D01*
X1038522Y338917D01*
X1037878Y339078D01*
X1037222Y339176D01*
X1036560Y339208D01*
X1018360D01*
X1017698Y339176D01*
X1017042Y339078D01*
X1016398Y338917D01*
X1015774Y338694D01*
X1015174Y338410D01*
X1014605Y338069D01*
X1014073Y337674D01*
X1013581Y337229D01*
X1013136Y336737D01*
X1012741Y336205D01*
X1012400Y335636D01*
X1012116Y335036D01*
X1011893Y334412D01*
X1011732Y333768D01*
X1011635Y333112D01*
X1011602Y332450D01*
Y329180D01*
X1010332Y328327D01*
X1010102Y328373D01*
X1009244Y328475D01*
X1008380Y328508D01*
X977930D01*
Y328990D01*
X976938D01*
Y360679D01*
X976938Y360680D01*
X976905Y361608D01*
X976806Y362531D01*
X976641Y363445D01*
X976411Y364345D01*
X976118Y365226D01*
X975763Y366084D01*
X975347Y366914D01*
X974873Y367713D01*
X974344Y368475D01*
X973761Y369199D01*
X973128Y369878D01*
X973128Y369879D01*
X915978Y427028D01*
X915299Y427661D01*
X914576Y428244D01*
X913813Y428773D01*
X913014Y429247D01*
X912184Y429663D01*
X911326Y430018D01*
X910445Y430311D01*
X909545Y430541D01*
X908631Y430706D01*
X907708Y430805D01*
X906780Y430838D01*
X880110D01*
X879182Y430805D01*
X878259Y430706D01*
X877345Y430541D01*
X876557Y430340D01*
X862300D01*
Y428968D01*
X860300D01*
X860202Y428964D01*
X858932Y429993D01*
Y438943D01*
X855472D01*
Y441579D01*
X843026D01*
X830580D01*
Y439158D01*
X828469D01*
X827907Y439720D01*
Y456789D01*
X830898D01*
Y484789D01*
X806898D01*
Y456789D01*
X809889D01*
Y452816D01*
X809656Y451643D01*
X777844D01*
Y439158D01*
X767969D01*
X767184Y439123D01*
X766405Y439021D01*
X765637Y438851D01*
X764888Y438614D01*
X764162Y438314D01*
X763465Y437951D01*
X762802Y437528D01*
X762178Y437050D01*
X761599Y436519D01*
X758170Y433090D01*
X757639Y432511D01*
X757161Y431887D01*
X756738Y431224D01*
X756561Y430883D01*
X755985Y431122D01*
X755337Y431309D01*
X754673Y431422D01*
X754000Y431459D01*
X708533D01*
X707860Y431422D01*
X707196Y431309D01*
X706548Y431122D01*
X705926Y430864D01*
X705336Y430538D01*
X704786Y430148D01*
X704284Y429699D01*
X638752Y364167D01*
X638303Y363665D01*
X637913Y363115D01*
X637587Y362525D01*
X637329Y361903D01*
X637142Y361255D01*
X637029Y360591D01*
X636992Y359918D01*
X636992Y325628D01*
X637029Y324955D01*
X637142Y324291D01*
X637329Y323643D01*
X637587Y323021D01*
X637913Y322431D01*
X638303Y321881D01*
X638752Y321379D01*
X650182Y309949D01*
X650684Y309500D01*
X651234Y309110D01*
X651824Y308784D01*
X652446Y308526D01*
X653094Y308339D01*
X653758Y308226D01*
X654431Y308189D01*
X664642D01*
X673042Y299789D01*
X673544Y299340D01*
X674094Y298950D01*
X674684Y298624D01*
X675306Y298366D01*
X675954Y298179D01*
X676618Y298066D01*
X677291Y298029D01*
X687489D01*
X687975Y296855D01*
X685404Y294284D01*
X684830Y294261D01*
X683867Y294147D01*
X682915Y293958D01*
X681981Y293695D01*
X681070Y293359D01*
X680189Y292952D01*
X679342Y292478D01*
X678535Y291939D01*
X677773Y291338D01*
X677060Y290679D01*
X676402Y289967D01*
X675801Y289205D01*
X675262Y288398D01*
X674788Y287551D01*
X674381Y286670D01*
X674045Y285759D01*
X673782Y284825D01*
X673593Y283873D01*
X673479Y282910D01*
X673456Y282336D01*
X671908Y280789D01*
X650840D01*
Y286192D01*
X598840D01*
Y281201D01*
X572741D01*
X572319Y281591D01*
X571557Y282192D01*
X570750Y282731D01*
X569904Y283205D01*
X569022Y283611D01*
X568112Y283947D01*
X567178Y284211D01*
X566226Y284400D01*
X565262Y284514D01*
X564292Y284552D01*
X563323Y284514D01*
X562359Y284400D01*
X561407Y284211D01*
X560473Y283947D01*
X559563Y283611D01*
X558681Y283205D01*
X557835Y282731D01*
X557028Y282192D01*
X556266Y281591D01*
X555553Y280932D01*
X554894Y280219D01*
X554294Y279457D01*
X553754Y278650D01*
X553280Y277804D01*
X552874Y276922D01*
X552538Y276012D01*
X552275Y275078D01*
X552085Y274126D01*
X551971Y273162D01*
X551949Y272589D01*
X507980Y228620D01*
X507449Y228041D01*
X506971Y227417D01*
X506730Y227039D01*
X505562Y227315D01*
X505460Y227373D01*
Y302260D01*
X462280Y345440D01*
Y507050D01*
X467360D01*
Y514590D01*
X468630D01*
Y515860D01*
X479170D01*
Y520700D01*
X482600D01*
Y533590D01*
X482630D01*
Y555590D01*
X477639D01*
Y563237D01*
X477658Y563244D01*
X478302Y563548D01*
X478913Y563915D01*
X479485Y564339D01*
X480013Y564817D01*
X480491Y565345D01*
X480915Y565917D01*
X481282Y566528D01*
X481586Y567172D01*
X481826Y567843D01*
X481999Y568534D01*
X482104Y569239D01*
X482139Y569950D01*
Y577450D01*
X482104Y578162D01*
X481999Y578866D01*
X481826Y579557D01*
X481586Y580228D01*
X481282Y580872D01*
X480915Y581483D01*
X480491Y582055D01*
X480013Y582583D01*
X479485Y583061D01*
X478913Y583485D01*
X478913Y584915D01*
X479485Y585339D01*
X480013Y585817D01*
X480491Y586345D01*
X480915Y586917D01*
X481282Y587528D01*
X481586Y588172D01*
X481826Y588843D01*
X481999Y589534D01*
X482104Y590238D01*
X482139Y590950D01*
Y598450D01*
X482104Y599161D01*
X481999Y599866D01*
X481826Y600557D01*
X481586Y601228D01*
X481282Y601872D01*
X480915Y602483D01*
X480491Y603055D01*
X480013Y603583D01*
X479485Y604061D01*
X478913Y604485D01*
X478639Y604649D01*
Y606724D01*
X485476Y613560D01*
X545764D01*
X550061Y609264D01*
Y605574D01*
X549515Y605126D01*
X548750Y604410D01*
X548034Y603645D01*
X547370Y602835D01*
X546759Y601984D01*
X546206Y601094D01*
X546084Y600865D01*
X545566Y600701D01*
X544591Y600760D01*
X544213Y601240D01*
X543544Y601964D01*
X542820Y602633D01*
X542047Y603243D01*
X541227Y603790D01*
X540367Y604272D01*
X539473Y604684D01*
X538548Y605025D01*
X537600Y605293D01*
X536633Y605485D01*
X535940Y605567D01*
Y593090D01*
Y580613D01*
X536633Y580695D01*
X537600Y580887D01*
X538548Y581155D01*
X539473Y581496D01*
X540367Y581908D01*
X541227Y582390D01*
X542047Y582937D01*
X542820Y583547D01*
X543544Y584216D01*
X544213Y584940D01*
X544591Y585420D01*
X545566Y585479D01*
X546084Y585315D01*
X546206Y585086D01*
X546759Y584196D01*
X547370Y583345D01*
X548034Y582535D01*
X548750Y581770D01*
X549515Y581054D01*
X550325Y580390D01*
X551176Y579779D01*
X552066Y579226D01*
X552990Y578732D01*
X553944Y578300D01*
X554924Y577931D01*
X555927Y577627D01*
X556761Y577432D01*
Y543560D01*
X556796Y542513D01*
X556898Y541470D01*
X557069Y540437D01*
X557307Y539417D01*
X557611Y538414D01*
X557980Y537434D01*
X558412Y536480D01*
X558906Y535556D01*
X559459Y534666D01*
X560070Y533815D01*
X560410Y533400D01*
X559926Y532237D01*
X559813Y532130D01*
X549910D01*
Y529970D01*
X543800D01*
Y519430D01*
Y508890D01*
X549910D01*
Y505460D01*
X548906Y504817D01*
X537210Y499126D01*
X537210Y466090D01*
X561075D01*
X561762Y465104D01*
Y452596D01*
X561796Y451732D01*
X561897Y450874D01*
X562066Y450026D01*
X562300Y449194D01*
X562599Y448383D01*
X562961Y447598D01*
X563384Y446844D01*
X563864Y446126D01*
X564016Y445933D01*
X563745Y444560D01*
X562999Y444029D01*
X562828Y444037D01*
X558328D01*
X557666Y444005D01*
X557010Y443907D01*
X556366Y443746D01*
X555742Y443523D01*
X555142Y443239D01*
X554573Y442898D01*
X554041Y442503D01*
X553549Y442058D01*
X553104Y441566D01*
X552709Y441034D01*
X552368Y440465D01*
X552084Y439865D01*
X551861Y439241D01*
X551700Y438597D01*
X551602Y437941D01*
X551570Y437279D01*
Y419079D01*
X551602Y418417D01*
X551700Y417761D01*
X551788Y417408D01*
X551401Y416667D01*
X550862Y416138D01*
X516890D01*
X516026Y416105D01*
X515168Y416003D01*
X514600Y415890D01*
X495270D01*
Y393890D01*
X523270D01*
Y394122D01*
X565983D01*
X566179Y393859D01*
X566463Y392851D01*
X566249Y392658D01*
X565804Y392166D01*
X565409Y391634D01*
X564776Y391023D01*
X564090Y390925D01*
X563681Y391064D01*
X563258Y391148D01*
X562828Y391176D01*
X561848D01*
Y378779D01*
X560578D01*
Y377509D01*
X555031D01*
Y369679D01*
X555059Y369249D01*
X555143Y368826D01*
X555282Y368417D01*
X555473Y368031D01*
X555712Y367672D01*
X555997Y367348D01*
X556321Y367063D01*
X556679Y366824D01*
X557066Y366633D01*
X557475Y366494D01*
X557214Y365258D01*
X523270D01*
Y368531D01*
X523791Y369099D01*
X524269Y369723D01*
X524692Y370386D01*
X525055Y371083D01*
X525355Y371809D01*
X525592Y372558D01*
X525762Y373326D01*
X525864Y374105D01*
X525899Y374890D01*
Y377049D01*
X525864Y377834D01*
X525762Y378613D01*
X525592Y379381D01*
X525355Y380130D01*
X525055Y380856D01*
X524692Y381553D01*
X524269Y382216D01*
X523791Y382840D01*
X523270Y383408D01*
Y385890D01*
X518593D01*
X518454Y385921D01*
X517675Y386023D01*
X516890Y386058D01*
X516105Y386023D01*
X515326Y385921D01*
X515187Y385890D01*
X495270D01*
Y363890D01*
Y345348D01*
X495424D01*
X496555Y344919D01*
X496555Y344919D01*
X496555Y344919D01*
X496583Y334010D01*
X497511D01*
X498730Y333887D01*
X498730Y332740D01*
Y327617D01*
X519810D01*
X519810Y333887D01*
X521029Y334010D01*
X530890D01*
Y347240D01*
X545380D01*
Y344890D01*
Y307890D01*
X582380D01*
Y317381D01*
X586740D01*
X587525Y317416D01*
X588304Y317518D01*
X589072Y317688D01*
X589821Y317925D01*
X590547Y318225D01*
X591244Y318588D01*
X591907Y319011D01*
X592531Y319489D01*
X593110Y320020D01*
X600730Y327640D01*
X601261Y328219D01*
X601739Y328843D01*
X602162Y329506D01*
X602525Y330203D01*
X602825Y330929D01*
X603062Y331678D01*
X603232Y332446D01*
X603334Y333225D01*
X603369Y334010D01*
Y336992D01*
X603758Y337413D01*
X604359Y338175D01*
X604898Y338982D01*
X605372Y339829D01*
X605779Y340710D01*
X606115Y341621D01*
X606378Y342555D01*
X606567Y343507D01*
X606681Y344470D01*
X606720Y345440D01*
X606681Y346410D01*
X606567Y347373D01*
X606378Y348325D01*
X606115Y349259D01*
X605779Y350170D01*
X605372Y351051D01*
X604898Y351898D01*
X604359Y352705D01*
X603758Y353467D01*
X603100Y354179D01*
X602387Y354838D01*
X601625Y355439D01*
X600818Y355978D01*
X599971Y356452D01*
X599090Y356859D01*
X598179Y357195D01*
X597245Y357458D01*
X596293Y357647D01*
X596145Y357665D01*
X594987Y358824D01*
Y365353D01*
X595108Y365588D01*
X595629Y366070D01*
X596257Y366393D01*
X596428Y366382D01*
X597408D01*
Y378779D01*
Y391176D01*
X596428D01*
X595998Y391148D01*
X595575Y391064D01*
X595166Y390925D01*
X594480Y391023D01*
X593847Y391634D01*
X593452Y392166D01*
X593007Y392658D01*
X592515Y393103D01*
X591983Y393498D01*
X591414Y393839D01*
X590814Y394123D01*
X590190Y394346D01*
X589546Y394507D01*
X588890Y394605D01*
X588228Y394637D01*
X586764D01*
X586523Y395065D01*
X586386Y395907D01*
X586861Y396224D01*
X587539Y396759D01*
X588174Y397346D01*
X588761Y397981D01*
X589296Y398659D01*
X589776Y399378D01*
X590199Y400132D01*
X590560Y400917D01*
X590860Y401728D01*
X591094Y402560D01*
X591227Y403227D01*
X592348Y404348D01*
X592879Y404927D01*
X593357Y405551D01*
X593780Y406214D01*
X594143Y406911D01*
X594443Y407637D01*
X594680Y408386D01*
X594850Y409154D01*
X594952Y409933D01*
X594987Y410718D01*
Y414753D01*
X595108Y414988D01*
X595629Y415470D01*
X596257Y415793D01*
X596428Y415782D01*
X597408D01*
Y428179D01*
Y440576D01*
X596428D01*
X596399Y440574D01*
X595341Y441422D01*
X595303Y442184D01*
X596301Y443149D01*
X596488Y443131D01*
X597535Y443096D01*
X598582Y443131D01*
X599624Y443233D01*
X600658Y443404D01*
X601678Y443642D01*
X602681Y443946D01*
X603661Y444315D01*
X604615Y444747D01*
X605539Y445241D01*
X606429Y445794D01*
X607280Y446405D01*
X608090Y447069D01*
X608855Y447785D01*
X664099Y503030D01*
X664100Y503030D01*
X664816Y503795D01*
X665480Y504605D01*
X666091Y505456D01*
X666644Y506346D01*
X667138Y507270D01*
X667570Y508224D01*
X667939Y509204D01*
X668243Y510207D01*
X668481Y511227D01*
X668652Y512261D01*
X668754Y513303D01*
X668789Y514350D01*
Y575029D01*
X675530Y581770D01*
X676246Y582535D01*
X676910Y583345D01*
X677521Y584196D01*
X678074Y585086D01*
X678196Y585315D01*
X678714Y585479D01*
X679689Y585420D01*
X680067Y584940D01*
X680736Y584216D01*
X681460Y583547D01*
X682234Y582937D01*
X683053Y582390D01*
X683913Y581908D01*
X684807Y581496D01*
X685732Y581155D01*
X686680Y580887D01*
X687647Y580695D01*
X688340Y580613D01*
Y593090D01*
Y605567D01*
X687647Y605485D01*
X686680Y605293D01*
X685732Y605025D01*
X684807Y604684D01*
X683913Y604272D01*
X683053Y603790D01*
X682234Y603243D01*
X681460Y602633D01*
X680736Y601964D01*
X680067Y601240D01*
X679689Y600760D01*
X678714Y600701D01*
X678196Y600865D01*
X678074Y601094D01*
X677521Y601984D01*
X676910Y602835D01*
X676246Y603645D01*
X675530Y604410D01*
X674765Y605126D01*
X673955Y605790D01*
X673104Y606401D01*
X672214Y606954D01*
X671290Y607448D01*
X670336Y607880D01*
X669356Y608249D01*
X668353Y608553D01*
X667333Y608791D01*
X666300Y608962D01*
X665257Y609064D01*
X664210Y609099D01*
X663163Y609064D01*
X662121Y608962D01*
X661087Y608791D01*
X660067Y608553D01*
X659064Y608249D01*
X658084Y607880D01*
X657130Y607448D01*
X656206Y606954D01*
X655316Y606401D01*
X654465Y605790D01*
X653655Y605126D01*
X652890Y604410D01*
X651510Y603030D01*
X650130Y604410D01*
X649365Y605126D01*
X648555Y605790D01*
X647704Y606401D01*
X646814Y606954D01*
X645890Y607448D01*
X644936Y607880D01*
X643956Y608249D01*
X642953Y608553D01*
X641933Y608791D01*
X640900Y608962D01*
X639857Y609064D01*
X638810Y609099D01*
X637763Y609064D01*
X636721Y608962D01*
X635687Y608791D01*
X634667Y608553D01*
X633664Y608249D01*
X632684Y607880D01*
X631730Y607448D01*
X630806Y606954D01*
X629916Y606401D01*
X629065Y605790D01*
X628255Y605126D01*
X627490Y604410D01*
X626774Y603645D01*
X626110Y602835D01*
X625499Y601984D01*
X624946Y601094D01*
X624452Y600170D01*
X624020Y599216D01*
X623651Y598236D01*
X623347Y597233D01*
X623109Y596213D01*
X622938Y595179D01*
X622836Y594137D01*
X622801Y593090D01*
X622836Y592043D01*
X622938Y591001D01*
X623109Y589967D01*
X623347Y588947D01*
X623651Y587944D01*
X624020Y586964D01*
X624452Y586010D01*
X624946Y585086D01*
X625499Y584196D01*
X626110Y583345D01*
X626774Y582535D01*
X627490Y581770D01*
X636771Y572489D01*
Y520981D01*
X586215Y470425D01*
X585499Y469660D01*
X585048Y469111D01*
X584116Y469331D01*
X583778Y469557D01*
Y531949D01*
X584090Y532240D01*
X584806Y533005D01*
X585470Y533815D01*
X586081Y534666D01*
X586634Y535556D01*
X587128Y536480D01*
X587560Y537434D01*
X587929Y538414D01*
X588233Y539417D01*
X588471Y540437D01*
X588642Y541470D01*
X588744Y542513D01*
X588779Y543560D01*
Y577090D01*
X601470D01*
Y592828D01*
X601479Y593090D01*
X601470Y593352D01*
Y609090D01*
X585732D01*
X585470Y609099D01*
X570079D01*
Y613410D01*
X570041Y614282D01*
X569927Y615148D01*
X569738Y616001D01*
X569476Y616833D01*
X569142Y617640D01*
X568739Y618415D01*
X568269Y619151D01*
X567738Y619844D01*
X567148Y620488D01*
X557873Y629762D01*
X558400Y631032D01*
X1116330D01*
Y567690D01*
D02*
G37*
G36*
X31465Y61064D02*
X31459Y60960D01*
X30518Y60176D01*
X29594Y59306D01*
X28724Y58382D01*
X27912Y57407D01*
X27160Y56385D01*
X26470Y55319D01*
X25847Y54214D01*
X25291Y53073D01*
X24806Y51900D01*
X24392Y50700D01*
X24051Y49478D01*
X23785Y48237D01*
X23594Y46982D01*
X23479Y45718D01*
X23440Y44450D01*
X23479Y43182D01*
X23594Y41918D01*
X23785Y40663D01*
X24051Y39422D01*
X24392Y38200D01*
X24806Y37000D01*
X25291Y35827D01*
X25847Y34686D01*
X26470Y33581D01*
X27160Y32515D01*
X27912Y31493D01*
X28724Y30518D01*
X29594Y29594D01*
X30518Y28724D01*
X31493Y27912D01*
X32515Y27160D01*
X33581Y26470D01*
X34686Y25847D01*
X35827Y25291D01*
X37000Y24806D01*
X38200Y24392D01*
X39422Y24051D01*
X40663Y23785D01*
X41918Y23594D01*
X43182Y23479D01*
X44450Y23440D01*
X45718Y23479D01*
X46982Y23594D01*
X48237Y23785D01*
X49478Y24051D01*
X50700Y24392D01*
X51900Y24806D01*
X53073Y25291D01*
X54214Y25847D01*
X55319Y26470D01*
X56385Y27160D01*
X57407Y27912D01*
X58382Y28724D01*
X59306Y29594D01*
X60176Y30518D01*
X60960Y31459D01*
X61064Y31465D01*
X62230Y31037D01*
Y6508D01*
X6508D01*
Y62230D01*
X31037D01*
X31465Y61064D01*
D02*
G37*
G36*
X1179672Y6508D02*
X1123950D01*
Y31037D01*
X1125116Y31465D01*
X1125220Y31459D01*
X1126004Y30518D01*
X1126874Y29594D01*
X1127798Y28724D01*
X1128773Y27912D01*
X1129795Y27160D01*
X1130861Y26470D01*
X1131966Y25847D01*
X1133107Y25291D01*
X1134280Y24806D01*
X1135480Y24392D01*
X1136702Y24051D01*
X1137943Y23785D01*
X1139198Y23594D01*
X1140462Y23479D01*
X1141730Y23440D01*
X1142999Y23479D01*
X1144262Y23594D01*
X1145517Y23785D01*
X1146758Y24051D01*
X1147980Y24392D01*
X1149180Y24806D01*
X1150353Y25291D01*
X1151494Y25847D01*
X1152599Y26470D01*
X1153665Y27160D01*
X1154687Y27912D01*
X1155662Y28724D01*
X1156586Y29594D01*
X1157456Y30518D01*
X1158268Y31493D01*
X1159020Y32515D01*
X1159710Y33581D01*
X1160333Y34686D01*
X1160889Y35827D01*
X1161374Y37000D01*
X1161788Y38200D01*
X1162129Y39422D01*
X1162395Y40663D01*
X1162586Y41918D01*
X1162701Y43182D01*
X1162740Y44450D01*
X1162701Y45718D01*
X1162586Y46982D01*
X1162395Y48237D01*
X1162129Y49478D01*
X1161788Y50700D01*
X1161374Y51900D01*
X1160889Y53073D01*
X1160333Y54214D01*
X1159710Y55319D01*
X1159020Y56385D01*
X1158268Y57407D01*
X1157456Y58382D01*
X1156586Y59306D01*
X1155662Y60176D01*
X1154721Y60960D01*
X1154715Y61064D01*
X1155143Y62230D01*
X1179672D01*
Y6508D01*
D02*
G37*
G36*
X62230Y606502D02*
X61064Y606075D01*
X60960Y606081D01*
X60176Y607022D01*
X59306Y607946D01*
X58382Y608816D01*
X57407Y609628D01*
X56385Y610381D01*
X55319Y611070D01*
X54214Y611693D01*
X53073Y612249D01*
X51900Y612734D01*
X50700Y613148D01*
X49478Y613489D01*
X48237Y613755D01*
X46982Y613946D01*
X45718Y614061D01*
X44450Y614100D01*
X43182Y614061D01*
X41918Y613946D01*
X40663Y613755D01*
X39422Y613489D01*
X38200Y613148D01*
X37000Y612734D01*
X35827Y612249D01*
X34686Y611693D01*
X33581Y611070D01*
X32515Y610381D01*
X31493Y609628D01*
X30518Y608816D01*
X29594Y607946D01*
X28724Y607022D01*
X27912Y606047D01*
X27160Y605025D01*
X26470Y603959D01*
X25847Y602854D01*
X25291Y601713D01*
X24806Y600540D01*
X24392Y599340D01*
X24051Y598118D01*
X23785Y596877D01*
X23594Y595622D01*
X23479Y594358D01*
X23440Y593090D01*
X23479Y591822D01*
X23594Y590558D01*
X23785Y589303D01*
X24051Y588062D01*
X24392Y586840D01*
X24806Y585640D01*
X25291Y584467D01*
X25847Y583326D01*
X26470Y582221D01*
X27160Y581155D01*
X27912Y580133D01*
X28724Y579158D01*
X29594Y578234D01*
X30518Y577364D01*
X31493Y576552D01*
X32515Y575799D01*
X33581Y575110D01*
X34686Y574487D01*
X35827Y573931D01*
X37000Y573446D01*
X38200Y573032D01*
X39422Y572691D01*
X40663Y572425D01*
X41918Y572234D01*
X43182Y572119D01*
X44450Y572080D01*
X45718Y572119D01*
X46982Y572234D01*
X48237Y572425D01*
X49478Y572691D01*
X50700Y573032D01*
X51900Y573446D01*
X53073Y573931D01*
X54214Y574487D01*
X55319Y575110D01*
X56385Y575799D01*
X57407Y576552D01*
X58382Y577364D01*
X59306Y578234D01*
X60176Y579158D01*
X60960Y580099D01*
X61064Y580105D01*
X62230Y579678D01*
Y568960D01*
X6508D01*
Y631032D01*
X62230D01*
Y606502D01*
D02*
G37*
%LPC*%
G36*
X733171Y390078D02*
X723901D01*
Y383808D01*
X733171D01*
Y390078D01*
D02*
G37*
G36*
X831850Y319949D02*
X831575Y319913D01*
X830817Y319745D01*
X830077Y319512D01*
X829359Y319215D01*
X828671Y318856D01*
X828016Y318439D01*
X827400Y317967D01*
X826828Y317442D01*
X826303Y316870D01*
X825831Y316254D01*
X825414Y315599D01*
X825055Y314911D01*
X824758Y314193D01*
X824525Y313453D01*
X824357Y312695D01*
X824321Y312420D01*
X831850D01*
Y319949D01*
D02*
G37*
G36*
X834390D02*
Y312420D01*
X841919D01*
X841883Y312695D01*
X841715Y313453D01*
X841482Y314193D01*
X841185Y314911D01*
X840826Y315599D01*
X840409Y316254D01*
X839937Y316870D01*
X839412Y317442D01*
X838840Y317967D01*
X838224Y318439D01*
X837569Y318856D01*
X836881Y319215D01*
X836163Y319512D01*
X835423Y319745D01*
X834665Y319913D01*
X834390Y319949D01*
D02*
G37*
G36*
X831850Y309880D02*
X824321D01*
X824357Y309605D01*
X824525Y308847D01*
X824758Y308106D01*
X825055Y307389D01*
X825414Y306701D01*
X825831Y306046D01*
X826303Y305430D01*
X826828Y304858D01*
X827400Y304333D01*
X828016Y303861D01*
X828671Y303444D01*
X829359Y303085D01*
X830077Y302788D01*
X830817Y302555D01*
X831575Y302387D01*
X831850Y302351D01*
Y309880D01*
D02*
G37*
G36*
X841919D02*
X834390D01*
Y302351D01*
X834665Y302387D01*
X835423Y302555D01*
X836163Y302788D01*
X836881Y303085D01*
X837569Y303444D01*
X838224Y303861D01*
X838840Y304333D01*
X839412Y304858D01*
X839937Y305430D01*
X840409Y306046D01*
X840826Y306701D01*
X841185Y307389D01*
X841482Y308106D01*
X841715Y308847D01*
X841883Y309605D01*
X841919Y309880D01*
D02*
G37*
G36*
X789940Y370840D02*
X782411D01*
X782447Y370565D01*
X782615Y369807D01*
X782848Y369067D01*
X783145Y368349D01*
X783504Y367661D01*
X783921Y367006D01*
X784393Y366390D01*
X784918Y365818D01*
X785490Y365293D01*
X786106Y364821D01*
X786761Y364404D01*
X787449Y364045D01*
X788167Y363748D01*
X788907Y363515D01*
X789665Y363347D01*
X789940Y363311D01*
Y370840D01*
D02*
G37*
G36*
Y380910D02*
X789665Y380873D01*
X788907Y380705D01*
X788167Y380472D01*
X787449Y380175D01*
X786761Y379816D01*
X786106Y379399D01*
X785490Y378927D01*
X784918Y378402D01*
X784393Y377830D01*
X783921Y377214D01*
X783504Y376559D01*
X783145Y375871D01*
X782848Y375154D01*
X782615Y374413D01*
X782447Y373655D01*
X782411Y373380D01*
X789940D01*
Y380910D01*
D02*
G37*
G36*
X792480D02*
Y373380D01*
X800010D01*
X799973Y373655D01*
X799805Y374413D01*
X799572Y375154D01*
X799275Y375871D01*
X798916Y376559D01*
X798499Y377214D01*
X798027Y377830D01*
X797502Y378402D01*
X796930Y378927D01*
X796314Y379399D01*
X795659Y379816D01*
X794971Y380175D01*
X794253Y380472D01*
X793513Y380705D01*
X792755Y380873D01*
X792480Y380910D01*
D02*
G37*
G36*
X800010Y370840D02*
X792480D01*
Y363311D01*
X792755Y363347D01*
X793513Y363515D01*
X794253Y363748D01*
X794971Y364045D01*
X795659Y364404D01*
X796314Y364821D01*
X796930Y365293D01*
X797502Y365818D01*
X798027Y366390D01*
X798499Y367006D01*
X798916Y367661D01*
X799275Y368349D01*
X799572Y369067D01*
X799805Y369807D01*
X799973Y370565D01*
X800010Y370840D01*
D02*
G37*
G36*
X841121Y376090D02*
X831851D01*
Y368820D01*
X841121D01*
Y376090D01*
D02*
G37*
G36*
X852931D02*
X843661D01*
Y368820D01*
X852931D01*
Y376090D01*
D02*
G37*
G36*
X814451Y372820D02*
X805181D01*
Y366550D01*
X814451D01*
Y372820D01*
D02*
G37*
G36*
X826261D02*
X816991D01*
Y366550D01*
X826261D01*
Y372820D01*
D02*
G37*
G36*
X775080Y384560D02*
X765810D01*
Y377290D01*
X775080D01*
Y384560D01*
D02*
G37*
G36*
X763270D02*
X754000D01*
Y377290D01*
X763270D01*
Y384560D01*
D02*
G37*
G36*
X836041Y255018D02*
X826771D01*
Y247748D01*
X836041D01*
Y255018D01*
D02*
G37*
G36*
X822960Y242479D02*
X822685Y242443D01*
X821927Y242275D01*
X821187Y242042D01*
X820469Y241745D01*
X819781Y241386D01*
X819126Y240969D01*
X818510Y240497D01*
X817938Y239972D01*
X817413Y239400D01*
X816941Y238784D01*
X816524Y238129D01*
X816165Y237441D01*
X815868Y236723D01*
X815635Y235983D01*
X815467Y235225D01*
X815431Y234950D01*
X822960D01*
Y242479D01*
D02*
G37*
G36*
X825500D02*
Y234950D01*
X833029D01*
X832993Y235225D01*
X832825Y235983D01*
X832592Y236723D01*
X832295Y237441D01*
X831936Y238129D01*
X831519Y238784D01*
X831047Y239400D01*
X830522Y239972D01*
X829950Y240497D01*
X829334Y240969D01*
X828679Y241386D01*
X827991Y241745D01*
X827273Y242042D01*
X826533Y242275D01*
X825775Y242443D01*
X825500Y242479D01*
D02*
G37*
G36*
X822451Y257288D02*
X813181D01*
Y251018D01*
X822451D01*
Y257288D01*
D02*
G37*
G36*
X847851Y255018D02*
X838581D01*
Y247748D01*
X847851D01*
Y255018D01*
D02*
G37*
G36*
X810641Y257288D02*
X801371D01*
Y251018D01*
X810641D01*
Y257288D01*
D02*
G37*
G36*
X833029Y232410D02*
X825500D01*
Y224881D01*
X825775Y224917D01*
X826533Y225085D01*
X827273Y225318D01*
X827991Y225615D01*
X828679Y225974D01*
X829334Y226391D01*
X829950Y226863D01*
X830522Y227388D01*
X831047Y227960D01*
X831519Y228576D01*
X831936Y229231D01*
X832295Y229919D01*
X832592Y230637D01*
X832825Y231377D01*
X832993Y232135D01*
X833029Y232410D01*
D02*
G37*
G36*
X781670Y198560D02*
X776150D01*
Y193040D01*
X781670D01*
Y198560D01*
D02*
G37*
G36*
Y190500D02*
X776150D01*
Y184980D01*
X781670D01*
Y190500D01*
D02*
G37*
G36*
X822960Y232410D02*
X815431D01*
X815467Y232135D01*
X815635Y231377D01*
X815868Y230637D01*
X816165Y229919D01*
X816524Y229231D01*
X816941Y228576D01*
X817413Y227960D01*
X817938Y227388D01*
X818510Y226863D01*
X819126Y226391D01*
X819781Y225974D01*
X820469Y225615D01*
X821187Y225318D01*
X821927Y225085D01*
X822685Y224917D01*
X822960Y224881D01*
Y232410D01*
D02*
G37*
G36*
X749120Y198560D02*
X743600D01*
Y193040D01*
X749120D01*
Y198560D01*
D02*
G37*
G36*
Y190500D02*
X743600D01*
Y184980D01*
X749120D01*
Y190500D01*
D02*
G37*
G36*
X762000Y166370D02*
X754471D01*
X754507Y166095D01*
X754675Y165337D01*
X754908Y164597D01*
X755205Y163879D01*
X755564Y163191D01*
X755981Y162536D01*
X756453Y161920D01*
X756978Y161348D01*
X757550Y160823D01*
X758166Y160351D01*
X758821Y159934D01*
X759509Y159575D01*
X760227Y159278D01*
X760967Y159045D01*
X761725Y158877D01*
X762000Y158841D01*
Y166370D01*
D02*
G37*
G36*
X772069D02*
X764540D01*
Y158841D01*
X764815Y158877D01*
X765573Y159045D01*
X766313Y159278D01*
X767031Y159575D01*
X767719Y159934D01*
X768374Y160351D01*
X768990Y160823D01*
X769562Y161348D01*
X770087Y161920D01*
X770559Y162536D01*
X770976Y163191D01*
X771335Y163879D01*
X771632Y164597D01*
X771865Y165337D01*
X772033Y166095D01*
X772069Y166370D01*
D02*
G37*
G36*
X762000Y176439D02*
X761725Y176403D01*
X760967Y176235D01*
X760227Y176002D01*
X759509Y175705D01*
X758821Y175346D01*
X758166Y174929D01*
X757550Y174457D01*
X756978Y173932D01*
X756453Y173360D01*
X755981Y172744D01*
X755564Y172089D01*
X755205Y171401D01*
X754908Y170683D01*
X754675Y169943D01*
X754507Y169185D01*
X754471Y168910D01*
X762000D01*
Y176439D01*
D02*
G37*
G36*
X764540D02*
Y168910D01*
X772069D01*
X772033Y169185D01*
X771865Y169943D01*
X771632Y170683D01*
X771335Y171401D01*
X770976Y172089D01*
X770559Y172744D01*
X770087Y173360D01*
X769562Y173932D01*
X768990Y174457D01*
X768374Y174929D01*
X767719Y175346D01*
X767031Y175705D01*
X766313Y176002D01*
X765573Y176235D01*
X764815Y176403D01*
X764540Y176439D01*
D02*
G37*
G36*
X601510Y214160D02*
X574510D01*
Y187160D01*
X579252D01*
X579535Y186696D01*
X579686Y185890D01*
X579164Y185469D01*
X578458Y184812D01*
X577801Y184106D01*
X577196Y183355D01*
X576646Y182563D01*
X576154Y181734D01*
X575722Y180872D01*
X575353Y179981D01*
X575049Y179066D01*
X574810Y178131D01*
X574639Y177183D01*
X574536Y176224D01*
X574501Y175260D01*
X574536Y174296D01*
X574639Y173337D01*
X574810Y172389D01*
X575049Y171454D01*
X575353Y170539D01*
X575722Y169648D01*
X576154Y168786D01*
X576646Y167957D01*
X577196Y167165D01*
X577801Y166414D01*
X578458Y165708D01*
X579164Y165051D01*
X579915Y164446D01*
X580707Y163896D01*
X581536Y163404D01*
X582398Y162972D01*
X583289Y162603D01*
X584204Y162299D01*
X585139Y162060D01*
X586087Y161889D01*
X587046Y161786D01*
X588010Y161751D01*
X588974Y161786D01*
X589933Y161889D01*
X590881Y162060D01*
X591816Y162299D01*
X592731Y162603D01*
X593622Y162972D01*
X594484Y163404D01*
X595313Y163896D01*
X596105Y164446D01*
X596856Y165051D01*
X597562Y165708D01*
X598219Y166414D01*
X598824Y167165D01*
X599374Y167957D01*
X599866Y168786D01*
X600298Y169648D01*
X600667Y170539D01*
X600971Y171454D01*
X601210Y172389D01*
X601381Y173337D01*
X601484Y174296D01*
X601519Y175260D01*
X601484Y176224D01*
X601381Y177183D01*
X601210Y178131D01*
X600971Y179066D01*
X600667Y179981D01*
X600298Y180872D01*
X599866Y181734D01*
X599374Y182563D01*
X598824Y183355D01*
X598219Y184106D01*
X597562Y184812D01*
X596856Y185469D01*
X596334Y185890D01*
X596485Y186696D01*
X596768Y187160D01*
X601510D01*
Y214160D01*
D02*
G37*
G36*
X664210Y214169D02*
X663246Y214134D01*
X662288Y214031D01*
X661339Y213860D01*
X660404Y213621D01*
X659489Y213317D01*
X658598Y212948D01*
X657736Y212516D01*
X656907Y212024D01*
X656115Y211474D01*
X655364Y210869D01*
X654658Y210212D01*
X654001Y209506D01*
X653396Y208755D01*
X652846Y207963D01*
X652354Y207134D01*
X651922Y206272D01*
X651553Y205381D01*
X651249Y204466D01*
X651010Y203531D01*
X650839Y202582D01*
X650736Y201624D01*
X650701Y200660D01*
X650736Y199696D01*
X650839Y198738D01*
X651010Y197789D01*
X651249Y196854D01*
X651553Y195939D01*
X651922Y195048D01*
X652354Y194186D01*
X652846Y193357D01*
X653396Y192565D01*
X654001Y191814D01*
X654658Y191108D01*
X655364Y190451D01*
X656115Y189846D01*
X656907Y189296D01*
X657736Y188804D01*
X658003Y188670D01*
Y187250D01*
X657736Y187116D01*
X656907Y186624D01*
X656115Y186074D01*
X655364Y185469D01*
X654658Y184812D01*
X654001Y184106D01*
X653396Y183355D01*
X652846Y182563D01*
X652354Y181734D01*
X651922Y180872D01*
X651553Y179981D01*
X651249Y179066D01*
X651010Y178131D01*
X650839Y177183D01*
X650736Y176224D01*
X650701Y175260D01*
X650736Y174296D01*
X650839Y173337D01*
X651010Y172389D01*
X651249Y171454D01*
X651553Y170539D01*
X651922Y169648D01*
X652354Y168786D01*
X652846Y167957D01*
X653396Y167165D01*
X654001Y166414D01*
X654658Y165708D01*
X655364Y165051D01*
X656115Y164446D01*
X656907Y163896D01*
X657736Y163404D01*
X658598Y162972D01*
X659489Y162603D01*
X660404Y162299D01*
X661339Y162060D01*
X662288Y161889D01*
X663246Y161786D01*
X664210Y161751D01*
X665174Y161786D01*
X666133Y161889D01*
X667081Y162060D01*
X668016Y162299D01*
X668931Y162603D01*
X669822Y162972D01*
X670684Y163404D01*
X671513Y163896D01*
X672305Y164446D01*
X673056Y165051D01*
X673762Y165708D01*
X674419Y166414D01*
X675024Y167165D01*
X675574Y167957D01*
X676066Y168786D01*
X676498Y169648D01*
X676867Y170539D01*
X677171Y171454D01*
X677410Y172389D01*
X677581Y173337D01*
X677684Y174296D01*
X677719Y175260D01*
X677684Y176224D01*
X677581Y177183D01*
X677410Y178131D01*
X677171Y179066D01*
X676867Y179981D01*
X676498Y180872D01*
X676066Y181734D01*
X675574Y182563D01*
X675024Y183355D01*
X674419Y184106D01*
X673762Y184812D01*
X673056Y185469D01*
X672305Y186074D01*
X671513Y186624D01*
X670684Y187116D01*
X670417Y187250D01*
Y188670D01*
X670684Y188804D01*
X671513Y189296D01*
X672305Y189846D01*
X673056Y190451D01*
X673762Y191108D01*
X674419Y191814D01*
X675024Y192565D01*
X675574Y193357D01*
X676066Y194186D01*
X676498Y195048D01*
X676867Y195939D01*
X677171Y196854D01*
X677410Y197789D01*
X677581Y198738D01*
X677684Y199696D01*
X677719Y200660D01*
X677684Y201624D01*
X677581Y202582D01*
X677410Y203531D01*
X677171Y204466D01*
X676867Y205381D01*
X676498Y206272D01*
X676066Y207134D01*
X675574Y207963D01*
X675024Y208755D01*
X674419Y209506D01*
X673762Y210212D01*
X673056Y210869D01*
X672305Y211474D01*
X671513Y212024D01*
X670684Y212516D01*
X669822Y212948D01*
X668931Y213317D01*
X668016Y213621D01*
X667081Y213860D01*
X666133Y214031D01*
X665174Y214134D01*
X664210Y214169D01*
D02*
G37*
G36*
X67087Y290830D02*
X55880D01*
Y279623D01*
X56573Y279705D01*
X57540Y279897D01*
X58488Y280165D01*
X59413Y280506D01*
X60307Y280918D01*
X61167Y281400D01*
X61986Y281947D01*
X62760Y282557D01*
X63484Y283226D01*
X64153Y283950D01*
X64763Y284723D01*
X65310Y285543D01*
X65792Y286403D01*
X66204Y287297D01*
X66546Y288222D01*
X66813Y289170D01*
X67005Y290137D01*
X67087Y290830D01*
D02*
G37*
G36*
X53340D02*
X42133D01*
X42215Y290137D01*
X42407Y289170D01*
X42674Y288222D01*
X43016Y287297D01*
X43428Y286403D01*
X43910Y285543D01*
X44457Y284723D01*
X45067Y283950D01*
X45736Y283226D01*
X46460Y282557D01*
X47234Y281947D01*
X48053Y281400D01*
X48913Y280918D01*
X49807Y280506D01*
X50732Y280165D01*
X51680Y279897D01*
X52647Y279705D01*
X53340Y279623D01*
Y290830D01*
D02*
G37*
G36*
X312420Y109660D02*
X306900D01*
Y104140D01*
X312420D01*
Y109660D01*
D02*
G37*
G36*
X320480D02*
X314960D01*
Y104140D01*
X320480D01*
Y109660D01*
D02*
G37*
G36*
X434720Y108190D02*
X425450D01*
Y101920D01*
X434720D01*
Y108190D01*
D02*
G37*
G36*
X331470Y125639D02*
X331195Y125603D01*
X330437Y125435D01*
X329697Y125202D01*
X328979Y124905D01*
X328291Y124546D01*
X327636Y124129D01*
X327020Y123657D01*
X326448Y123132D01*
X325923Y122560D01*
X325451Y121944D01*
X325034Y121289D01*
X324675Y120601D01*
X324378Y119883D01*
X324145Y119143D01*
X323977Y118385D01*
X323941Y118110D01*
X331470D01*
Y125639D01*
D02*
G37*
G36*
X334010D02*
Y118110D01*
X341539D01*
X341503Y118385D01*
X341335Y119143D01*
X341102Y119883D01*
X340805Y120601D01*
X340446Y121289D01*
X340029Y121944D01*
X339557Y122560D01*
X339032Y123132D01*
X338460Y123657D01*
X337844Y124129D01*
X337189Y124546D01*
X336501Y124905D01*
X335784Y125202D01*
X335043Y125435D01*
X334285Y125603D01*
X334010Y125639D01*
D02*
G37*
G36*
X331470Y115570D02*
X323941D01*
X323977Y115295D01*
X324145Y114537D01*
X324378Y113797D01*
X324675Y113079D01*
X325034Y112391D01*
X325451Y111736D01*
X325923Y111120D01*
X326448Y110548D01*
X327020Y110023D01*
X327636Y109551D01*
X328291Y109134D01*
X328979Y108775D01*
X329697Y108478D01*
X330437Y108245D01*
X331195Y108077D01*
X331470Y108041D01*
Y115570D01*
D02*
G37*
G36*
X341539D02*
X334010D01*
Y108041D01*
X334285Y108077D01*
X335043Y108245D01*
X335784Y108478D01*
X336501Y108775D01*
X337189Y109134D01*
X337844Y109551D01*
X338460Y110023D01*
X339032Y110548D01*
X339557Y111120D01*
X340029Y111736D01*
X340446Y112391D01*
X340805Y113079D01*
X341102Y113797D01*
X341335Y114537D01*
X341503Y115295D01*
X341539Y115570D01*
D02*
G37*
G36*
X461010Y34290D02*
X449834D01*
Y30226D01*
X461010D01*
Y34290D01*
D02*
G37*
G36*
X474726D02*
X463550D01*
Y30226D01*
X474726D01*
Y34290D01*
D02*
G37*
G36*
X312420Y130160D02*
X306900D01*
Y124640D01*
X312420D01*
Y130160D01*
D02*
G37*
G36*
X320480D02*
X314960D01*
Y124640D01*
X320480D01*
Y130160D01*
D02*
G37*
G36*
X387127Y166370D02*
X375920D01*
Y155163D01*
X376613Y155245D01*
X377580Y155437D01*
X378528Y155704D01*
X379453Y156046D01*
X380347Y156458D01*
X381207Y156940D01*
X382026Y157487D01*
X382800Y158097D01*
X383524Y158766D01*
X384193Y159490D01*
X384803Y160264D01*
X385350Y161083D01*
X385832Y161943D01*
X386244Y162837D01*
X386586Y163762D01*
X386853Y164710D01*
X387045Y165677D01*
X387127Y166370D01*
D02*
G37*
G36*
X223520Y420280D02*
X223245Y420243D01*
X222487Y420075D01*
X221747Y419842D01*
X221029Y419545D01*
X220341Y419186D01*
X219686Y418769D01*
X219070Y418297D01*
X218498Y417772D01*
X217973Y417200D01*
X217501Y416584D01*
X217084Y415929D01*
X216725Y415241D01*
X216428Y414524D01*
X216195Y413783D01*
X216027Y413025D01*
X215991Y412750D01*
X223520D01*
Y420280D01*
D02*
G37*
G36*
X226060D02*
Y412750D01*
X233589D01*
X233553Y413025D01*
X233385Y413783D01*
X233152Y414524D01*
X232855Y415241D01*
X232496Y415929D01*
X232079Y416584D01*
X231607Y417200D01*
X231082Y417772D01*
X230510Y418297D01*
X229894Y418769D01*
X229239Y419186D01*
X228551Y419545D01*
X227833Y419842D01*
X227093Y420075D01*
X226335Y420243D01*
X226060Y420280D01*
D02*
G37*
G36*
X65150Y495060D02*
X44070D01*
Y488950D01*
X40640D01*
Y477360D01*
X40610Y477330D01*
Y455330D01*
X45601D01*
Y447683D01*
X45582Y447676D01*
X44938Y447372D01*
X44327Y447005D01*
X43755Y446581D01*
X43227Y446103D01*
X42749Y445575D01*
X42325Y445003D01*
X41958Y444392D01*
X41654Y443748D01*
X41414Y443077D01*
X41241Y442386D01*
X41136Y441682D01*
X41101Y440970D01*
Y433470D01*
X41136Y432758D01*
X41241Y432054D01*
X41414Y431363D01*
X41654Y430692D01*
X41958Y430048D01*
X42325Y429437D01*
X42749Y428865D01*
X43227Y428337D01*
X43755Y427859D01*
X44327Y427435D01*
X44327Y426005D01*
X43755Y425581D01*
X43366Y425229D01*
X40300D01*
X39515Y425194D01*
X38736Y425092D01*
X37968Y424922D01*
X37219Y424685D01*
X36493Y424385D01*
X35796Y424022D01*
X35133Y423599D01*
X34509Y423121D01*
X33930Y422590D01*
X27307Y415967D01*
X26640Y415834D01*
X25808Y415600D01*
X24997Y415300D01*
X24212Y414939D01*
X23458Y414516D01*
X22739Y414036D01*
X22061Y413501D01*
X21426Y412914D01*
X20839Y412279D01*
X20304Y411601D01*
X19824Y410882D01*
X19401Y410128D01*
X19039Y409343D01*
X18740Y408532D01*
X18506Y407700D01*
X18337Y406852D01*
X18235Y405994D01*
X18202Y405130D01*
Y346710D01*
X18235Y345846D01*
X18337Y344988D01*
X18506Y344140D01*
X18740Y343308D01*
X19039Y342497D01*
X19401Y341712D01*
X19824Y340958D01*
X20304Y340239D01*
X20839Y339561D01*
X21426Y338926D01*
X25236Y335116D01*
X25871Y334529D01*
X26549Y333994D01*
X27268Y333514D01*
X28022Y333091D01*
X28807Y332729D01*
X29618Y332430D01*
X30450Y332196D01*
X31298Y332027D01*
X32156Y331926D01*
X33020Y331892D01*
X42999D01*
X43290Y331580D01*
X44316Y330555D01*
X43795Y329293D01*
X43290Y328820D01*
X42574Y328055D01*
X41910Y327245D01*
X41299Y326394D01*
X40746Y325504D01*
X40252Y324580D01*
X39820Y323626D01*
X39451Y322646D01*
X39147Y321643D01*
X38909Y320623D01*
X38738Y319590D01*
X38636Y318547D01*
X38601Y317500D01*
X38636Y316453D01*
X38738Y315410D01*
X38909Y314377D01*
X39147Y313357D01*
X39451Y312354D01*
X39820Y311374D01*
X40252Y310420D01*
X40746Y309496D01*
X41299Y308606D01*
X41910Y307755D01*
X42574Y306945D01*
X43290Y306180D01*
X44055Y305464D01*
X44865Y304800D01*
X45716Y304189D01*
X46606Y303636D01*
X46835Y303514D01*
X46999Y302996D01*
X46940Y302021D01*
X46460Y301643D01*
X45736Y300974D01*
X45067Y300250D01*
X44457Y299477D01*
X43910Y298657D01*
X43428Y297797D01*
X43016Y296903D01*
X42674Y295978D01*
X42407Y295030D01*
X42215Y294063D01*
X42133Y293370D01*
X54610D01*
X67087D01*
X67005Y294063D01*
X66813Y295030D01*
X66546Y295978D01*
X66204Y296903D01*
X65792Y297797D01*
X65310Y298657D01*
X64763Y299477D01*
X64153Y300250D01*
X63484Y300974D01*
X62760Y301643D01*
X62280Y302021D01*
X62221Y302996D01*
X62385Y303514D01*
X62614Y303636D01*
X63504Y304189D01*
X64355Y304800D01*
X65165Y305464D01*
X65930Y306180D01*
X66544Y306836D01*
X67200Y307450D01*
X69178Y309429D01*
X70351Y308943D01*
Y168910D01*
X70386Y167863D01*
X70408Y167640D01*
X70386Y167417D01*
X70351Y166370D01*
Y106680D01*
X70386Y105633D01*
X70488Y104591D01*
X70659Y103557D01*
X70897Y102537D01*
X71201Y101534D01*
X71570Y100554D01*
X72002Y99600D01*
X72496Y98676D01*
X73049Y97786D01*
X73660Y96935D01*
X74324Y96125D01*
X75040Y95360D01*
X113140Y57261D01*
X113140Y57260D01*
X113905Y56544D01*
X114715Y55880D01*
X115566Y55269D01*
X116456Y54716D01*
X117380Y54222D01*
X118334Y53790D01*
X119314Y53421D01*
X120317Y53117D01*
X121337Y52879D01*
X122371Y52708D01*
X123413Y52606D01*
X124460Y52571D01*
X220980D01*
X222027Y52606D01*
X223069Y52708D01*
X224103Y52879D01*
X225123Y53117D01*
X226126Y53421D01*
X227106Y53790D01*
X228060Y54222D01*
X228984Y54716D01*
X229874Y55269D01*
X230725Y55880D01*
X231535Y56544D01*
X232300Y57260D01*
X233016Y58025D01*
X233680Y58835D01*
X234291Y59686D01*
X234844Y60576D01*
X235338Y61500D01*
X235770Y62454D01*
X236139Y63434D01*
X236443Y64437D01*
X236681Y65457D01*
X236794Y66140D01*
X239442Y68788D01*
X240082Y69481D01*
X240666Y70221D01*
X241189Y71005D01*
X241650Y71828D01*
X242045Y72684D01*
X242371Y73569D01*
X242627Y74476D01*
X242811Y75401D01*
X242922Y76338D01*
X242959Y77280D01*
X242922Y78222D01*
X242811Y79159D01*
X242627Y80084D01*
X242371Y80991D01*
X242045Y81876D01*
X241958Y82064D01*
Y84148D01*
X242630D01*
Y112147D01*
X241958D01*
Y128882D01*
X242190D01*
X243054Y128916D01*
X243912Y129017D01*
X244760Y129186D01*
X245592Y129420D01*
X246403Y129719D01*
X247188Y130081D01*
X247942Y130504D01*
X248661Y130984D01*
X249340Y131519D01*
X249974Y132106D01*
X252894Y135026D01*
X253481Y135661D01*
X254016Y136339D01*
X254496Y137058D01*
X254630Y137297D01*
X255900Y136966D01*
Y111760D01*
X255940Y110950D01*
X256059Y110149D01*
X256256Y109362D01*
X256529Y108599D01*
X256875Y107866D01*
X257292Y107171D01*
X257775Y106520D01*
X258319Y105919D01*
X265498Y98741D01*
X266098Y98196D01*
X266750Y97714D01*
X267445Y97297D01*
X267750Y97153D01*
Y88581D01*
X277215D01*
X277285Y88359D01*
X277585Y87633D01*
X277948Y86936D01*
X278371Y86273D01*
X278849Y85649D01*
X279380Y85070D01*
X281950Y82500D01*
X282529Y81969D01*
X283153Y81491D01*
X283816Y81068D01*
X284513Y80705D01*
X285239Y80405D01*
X285988Y80168D01*
X286756Y79998D01*
X287535Y79896D01*
X288320Y79861D01*
X303440D01*
Y78620D01*
X323940D01*
Y99120D01*
X320480D01*
Y101600D01*
X313690D01*
X306900D01*
Y99120D01*
X303750D01*
Y120581D01*
Y129221D01*
Y135180D01*
X306900D01*
Y132700D01*
X320480D01*
Y135180D01*
X323940D01*
Y154073D01*
X324838Y154971D01*
X347340Y132469D01*
Y99060D01*
X347380Y98250D01*
X347499Y97449D01*
X347696Y96662D01*
X347969Y95899D01*
X348315Y95166D01*
X348732Y94471D01*
X349215Y93820D01*
X349759Y93219D01*
X375159Y67819D01*
X375760Y67275D01*
X376411Y66792D01*
X377106Y66375D01*
X377839Y66029D01*
X378602Y65756D01*
X379389Y65559D01*
X380190Y65440D01*
X381000Y65400D01*
X446003D01*
X446374Y65246D01*
Y52166D01*
Y39466D01*
X449834D01*
Y36830D01*
X474726D01*
Y39466D01*
X478186D01*
Y52166D01*
Y64866D01*
Y77566D01*
Y90266D01*
Y107854D01*
X474726D01*
Y110490D01*
X449834D01*
Y107854D01*
X446374D01*
Y94774D01*
X446003Y94620D01*
X388231D01*
X380560Y102291D01*
Y138240D01*
X380520Y139050D01*
X380401Y139851D01*
X380204Y140638D01*
X379931Y141401D01*
X379585Y142134D01*
X379168Y142829D01*
X378685Y143480D01*
X378141Y144081D01*
X365071Y157150D01*
X365165Y157602D01*
X366500Y158097D01*
X367273Y157487D01*
X368093Y156940D01*
X368953Y156458D01*
X369847Y156046D01*
X370772Y155704D01*
X371720Y155437D01*
X372687Y155245D01*
X373380Y155163D01*
Y167640D01*
X374650D01*
Y168910D01*
X387127D01*
X387045Y169603D01*
X386853Y170570D01*
X386586Y171518D01*
X386244Y172443D01*
X385832Y173337D01*
X385350Y174197D01*
X384803Y175016D01*
X384193Y175790D01*
X383524Y176514D01*
X383507Y176530D01*
X384004Y177800D01*
X409441D01*
Y152400D01*
X409476Y151353D01*
X409578Y150310D01*
X409749Y149277D01*
X409987Y148257D01*
X410180Y147620D01*
Y128460D01*
X410210D01*
Y110460D01*
X413640D01*
Y101920D01*
X422910D01*
Y109460D01*
X424180D01*
Y110460D01*
X433070D01*
Y110730D01*
X434720D01*
Y117000D01*
X433070D01*
Y122532D01*
X434329Y122787D01*
X434691Y122002D01*
X435114Y121248D01*
X435594Y120529D01*
X436129Y119851D01*
X436716Y119216D01*
X437986Y117946D01*
X438621Y117359D01*
X439299Y116824D01*
X440018Y116344D01*
X440772Y115921D01*
X441557Y115560D01*
X442368Y115260D01*
X443200Y115026D01*
X444048Y114857D01*
X444906Y114755D01*
X445770Y114721D01*
X446634Y114755D01*
X447492Y114857D01*
X448340Y115026D01*
X448564Y115089D01*
X449703Y114371D01*
X449834Y114151D01*
Y113030D01*
X474726D01*
Y115666D01*
X478186D01*
Y133254D01*
X466735D01*
X466384Y133332D01*
X465605Y133434D01*
X464820Y133469D01*
X455508D01*
Y134500D01*
X455475Y135364D01*
X455373Y136222D01*
X455204Y137070D01*
X454970Y137902D01*
X454670Y138713D01*
X454309Y139498D01*
X453886Y140252D01*
X453406Y140971D01*
X452871Y141649D01*
X452284Y142284D01*
X447324Y147244D01*
X446689Y147831D01*
X446011Y148366D01*
X445292Y148846D01*
X444538Y149269D01*
X443753Y149630D01*
X442942Y149930D01*
X442110Y150164D01*
X441323Y150321D01*
X441424Y151353D01*
X441459Y152400D01*
Y302259D01*
X441459Y302260D01*
X441424Y303307D01*
X441322Y304349D01*
X441151Y305383D01*
X440913Y306403D01*
X440609Y307406D01*
X440240Y308386D01*
X439808Y309340D01*
X439314Y310264D01*
X438761Y311154D01*
X438150Y312005D01*
X437486Y312815D01*
X436770Y313580D01*
X436769Y313580D01*
X407560Y342790D01*
X406795Y343506D01*
X405985Y344170D01*
X405134Y344781D01*
X404244Y345334D01*
X403320Y345828D01*
X402366Y346260D01*
X401386Y346629D01*
X400383Y346933D01*
X399363Y347171D01*
X398330Y347342D01*
X397287Y347444D01*
X396240Y347479D01*
X72671D01*
X65930Y354220D01*
X65641Y354490D01*
X66143Y355760D01*
X67150D01*
Y367030D01*
X54610D01*
X42070D01*
Y355760D01*
X42329D01*
X42955Y354490D01*
X42509Y353909D01*
X40219D01*
Y403398D01*
X43715Y406895D01*
X43755Y406859D01*
X44327Y406435D01*
X44938Y406068D01*
X45582Y405764D01*
X46253Y405524D01*
X46944Y405351D01*
X47649Y405246D01*
X48360Y405211D01*
X60860D01*
X61571Y405246D01*
X62276Y405351D01*
X62967Y405524D01*
X63638Y405764D01*
X64282Y406068D01*
X64893Y406435D01*
X65465Y406859D01*
X65993Y407337D01*
X66471Y407865D01*
X66895Y408437D01*
X67262Y409048D01*
X67566Y409692D01*
X67806Y410363D01*
X67979Y411054D01*
X68084Y411758D01*
X68119Y412470D01*
Y419970D01*
X68084Y420681D01*
X67979Y421386D01*
X67806Y422077D01*
X67566Y422748D01*
X67262Y423392D01*
X66895Y424003D01*
X66471Y424575D01*
X65993Y425103D01*
X65465Y425581D01*
X64893Y426005D01*
X64893Y427435D01*
X65465Y427859D01*
X65993Y428337D01*
X66471Y428865D01*
X66895Y429437D01*
X67262Y430048D01*
X67566Y430692D01*
X67806Y431363D01*
X67979Y432054D01*
X68084Y432758D01*
X68119Y433470D01*
Y440970D01*
X68084Y441682D01*
X67979Y442386D01*
X67806Y443077D01*
X67566Y443748D01*
X67262Y444392D01*
X66895Y445003D01*
X66471Y445575D01*
X65993Y446103D01*
X65465Y446581D01*
X64893Y447005D01*
X64282Y447372D01*
X63638Y447676D01*
X63619Y447683D01*
Y455330D01*
X68610D01*
Y477330D01*
Y488920D01*
X68580Y488950D01*
X65150D01*
Y495060D01*
D02*
G37*
G36*
X252919Y474683D02*
X123620D01*
Y429690D01*
X252919D01*
Y474683D01*
D02*
G37*
G36*
X359410Y436379D02*
X358363Y436344D01*
X357321Y436242D01*
X356287Y436071D01*
X355267Y435833D01*
X354264Y435529D01*
X353284Y435160D01*
X352330Y434728D01*
X351406Y434234D01*
X350516Y433681D01*
X349665Y433070D01*
X348855Y432406D01*
X348090Y431690D01*
X347542Y431104D01*
X346710Y430934D01*
X345878Y431104D01*
X345330Y431690D01*
X344565Y432406D01*
X343755Y433070D01*
X342904Y433681D01*
X342014Y434234D01*
X341090Y434728D01*
X340136Y435160D01*
X339156Y435529D01*
X338153Y435833D01*
X337133Y436071D01*
X336100Y436242D01*
X335057Y436344D01*
X334010Y436379D01*
X332963Y436344D01*
X331921Y436242D01*
X330887Y436071D01*
X329867Y435833D01*
X328864Y435529D01*
X327884Y435160D01*
X326930Y434728D01*
X326006Y434234D01*
X325116Y433681D01*
X324265Y433070D01*
X323455Y432406D01*
X322690Y431690D01*
X322142Y431104D01*
X321310Y430934D01*
X320478Y431104D01*
X319930Y431690D01*
X319165Y432406D01*
X318355Y433070D01*
X317504Y433681D01*
X316614Y434234D01*
X315690Y434728D01*
X314736Y435160D01*
X313756Y435529D01*
X312753Y435833D01*
X311733Y436071D01*
X310700Y436242D01*
X309657Y436344D01*
X308610Y436379D01*
X307563Y436344D01*
X306521Y436242D01*
X305487Y436071D01*
X304467Y435833D01*
X303464Y435529D01*
X302484Y435160D01*
X301530Y434728D01*
X300606Y434234D01*
X300480Y434156D01*
X299210Y434861D01*
Y436370D01*
X267210D01*
Y404370D01*
X299210D01*
Y405879D01*
X300480Y406584D01*
X300606Y406506D01*
X301530Y406012D01*
X302484Y405580D01*
X303464Y405211D01*
X304467Y404907D01*
X305487Y404669D01*
X306521Y404498D01*
X307563Y404396D01*
X308610Y404361D01*
X309657Y404396D01*
X310700Y404498D01*
X311733Y404669D01*
X312753Y404907D01*
X313756Y405211D01*
X314736Y405580D01*
X315690Y406012D01*
X316614Y406506D01*
X317504Y407059D01*
X318355Y407670D01*
X319165Y408334D01*
X319930Y409050D01*
X320478Y409636D01*
X321310Y409806D01*
X322142Y409636D01*
X322690Y409050D01*
X323455Y408334D01*
X324265Y407670D01*
X325116Y407059D01*
X326006Y406506D01*
X326930Y406012D01*
X327884Y405580D01*
X328864Y405211D01*
X329867Y404907D01*
X330887Y404669D01*
X331921Y404498D01*
X332963Y404396D01*
X334010Y404361D01*
X335057Y404396D01*
X336100Y404498D01*
X337133Y404669D01*
X338153Y404907D01*
X339156Y405211D01*
X340136Y405580D01*
X341090Y406012D01*
X342014Y406506D01*
X342904Y407059D01*
X343755Y407670D01*
X344565Y408334D01*
X345330Y409050D01*
X345878Y409636D01*
X346710Y409806D01*
X347542Y409636D01*
X348090Y409050D01*
X348855Y408334D01*
X349665Y407670D01*
X350516Y407059D01*
X351406Y406506D01*
X352330Y406012D01*
X353284Y405580D01*
X354264Y405211D01*
X355267Y404907D01*
X356287Y404669D01*
X357321Y404498D01*
X358363Y404396D01*
X359410Y404361D01*
X360457Y404396D01*
X361499Y404498D01*
X362533Y404669D01*
X363553Y404907D01*
X364556Y405211D01*
X365536Y405580D01*
X366490Y406012D01*
X367414Y406506D01*
X368304Y407059D01*
X369155Y407670D01*
X369965Y408334D01*
X370730Y409050D01*
X371446Y409815D01*
X372110Y410625D01*
X372721Y411476D01*
X373274Y412366D01*
X373768Y413290D01*
X374200Y414244D01*
X374569Y415224D01*
X374873Y416227D01*
X375111Y417247D01*
X375282Y418280D01*
X375384Y419323D01*
X375419Y420370D01*
X375384Y421417D01*
X375282Y422459D01*
X375111Y423493D01*
X374873Y424513D01*
X374569Y425516D01*
X374200Y426496D01*
X373768Y427450D01*
X373274Y428374D01*
X372721Y429264D01*
X372110Y430115D01*
X371446Y430925D01*
X370730Y431690D01*
X369965Y432406D01*
X369155Y433070D01*
X368304Y433681D01*
X367414Y434234D01*
X366490Y434728D01*
X365536Y435160D01*
X364556Y435529D01*
X363553Y435833D01*
X362533Y436071D01*
X361499Y436242D01*
X360457Y436344D01*
X359410Y436379D01*
D02*
G37*
G36*
X407726Y615653D02*
X301420D01*
Y570660D01*
X407726D01*
Y615653D01*
D02*
G37*
G36*
X53340Y503870D02*
X44070D01*
Y497600D01*
X53340D01*
Y503870D01*
D02*
G37*
G36*
X65150D02*
X55880D01*
Y497600D01*
X65150D01*
Y503870D01*
D02*
G37*
G36*
X233589Y410210D02*
X226060D01*
Y402681D01*
X226335Y402717D01*
X227093Y402885D01*
X227833Y403118D01*
X228551Y403415D01*
X229239Y403774D01*
X229894Y404191D01*
X230510Y404663D01*
X231082Y405188D01*
X231607Y405760D01*
X232079Y406376D01*
X232496Y407031D01*
X232855Y407719D01*
X233152Y408437D01*
X233385Y409177D01*
X233553Y409935D01*
X233589Y410210D01*
D02*
G37*
G36*
X67150Y380840D02*
X55880D01*
Y369570D01*
X67150D01*
Y380840D01*
D02*
G37*
G36*
X233680Y384690D02*
X224910D01*
Y375920D01*
X233680D01*
Y384690D01*
D02*
G37*
G36*
X244990D02*
X236220D01*
Y375920D01*
X244990D01*
Y384690D01*
D02*
G37*
G36*
X53340Y380840D02*
X42070D01*
Y369570D01*
X53340D01*
Y380840D01*
D02*
G37*
G36*
X244990Y373380D02*
X236220D01*
Y364610D01*
X244990D01*
Y373380D01*
D02*
G37*
G36*
X233680D02*
X224910D01*
Y364610D01*
X233680D01*
Y373380D01*
D02*
G37*
G36*
X181140Y388150D02*
X154140D01*
Y383659D01*
X150688D01*
X150267Y384048D01*
X149505Y384649D01*
X148698Y385188D01*
X147851Y385662D01*
X146970Y386069D01*
X146059Y386405D01*
X145125Y386668D01*
X144173Y386857D01*
X143210Y386971D01*
X142240Y387010D01*
X141270Y386971D01*
X140307Y386857D01*
X139355Y386668D01*
X138421Y386405D01*
X137510Y386069D01*
X136629Y385662D01*
X135782Y385188D01*
X134975Y384649D01*
X134213Y384048D01*
X133500Y383390D01*
X132842Y382677D01*
X132241Y381915D01*
X131702Y381108D01*
X131228Y380261D01*
X130821Y379380D01*
X130485Y378469D01*
X130222Y377535D01*
X130033Y376583D01*
X129919Y375620D01*
X129881Y374650D01*
X129919Y373680D01*
X130033Y372717D01*
X130222Y371765D01*
X130485Y370831D01*
X130821Y369920D01*
X131228Y369039D01*
X131702Y368192D01*
X132241Y367385D01*
X132842Y366623D01*
X133500Y365910D01*
X134213Y365252D01*
X134975Y364651D01*
X135782Y364112D01*
X136629Y363638D01*
X137510Y363231D01*
X138421Y362895D01*
X139355Y362632D01*
X140307Y362443D01*
X141270Y362329D01*
X142240Y362290D01*
X143210Y362329D01*
X144173Y362443D01*
X145125Y362632D01*
X146059Y362895D01*
X146970Y363231D01*
X147851Y363638D01*
X148698Y364112D01*
X149505Y364651D01*
X150267Y365252D01*
X150688Y365641D01*
X154140D01*
Y361150D01*
X181140D01*
Y388150D01*
D02*
G37*
G36*
X223520Y410210D02*
X215991D01*
X216027Y409935D01*
X216195Y409177D01*
X216428Y408437D01*
X216725Y407719D01*
X217084Y407031D01*
X217501Y406376D01*
X217973Y405760D01*
X218498Y405188D01*
X219070Y404663D01*
X219686Y404191D01*
X220341Y403774D01*
X221029Y403415D01*
X221747Y403118D01*
X222487Y402885D01*
X223245Y402717D01*
X223520Y402681D01*
Y410210D01*
D02*
G37*
%LPD*%
G36*
X188280Y307340D02*
X195820D01*
Y306070D01*
X197090D01*
Y295530D01*
X203200D01*
Y291210D01*
X197090D01*
Y280670D01*
Y270130D01*
X203360D01*
Y271780D01*
X214820D01*
Y266670D01*
X236820D01*
X236820Y266670D01*
Y266670D01*
X237924Y266226D01*
X240463Y263687D01*
X239869Y262484D01*
X239713Y262505D01*
X238950Y262538D01*
X238187Y262505D01*
X237429Y262405D01*
X236683Y262240D01*
X235954Y262010D01*
X235249Y261718D01*
X234571Y261365D01*
X233926Y260954D01*
X233320Y260489D01*
X232757Y259973D01*
X232241Y259410D01*
X231913Y258982D01*
X231543Y259045D01*
X230950Y259078D01*
X230357Y259045D01*
X229987Y258982D01*
X229659Y259410D01*
X229143Y259973D01*
X228580Y260489D01*
X227973Y260954D01*
X227329Y261365D01*
X226651Y261718D01*
X225945Y262010D01*
X225217Y262240D01*
X224471Y262405D01*
X223713Y262505D01*
X222950Y262538D01*
X222187Y262505D01*
X221429Y262405D01*
X220683Y262240D01*
X219954Y262010D01*
X219249Y261718D01*
X218950Y261562D01*
X218651Y261718D01*
X217945Y262010D01*
X217217Y262240D01*
X216471Y262405D01*
X215713Y262505D01*
X214950Y262538D01*
X214187Y262505D01*
X213429Y262405D01*
X212683Y262240D01*
X211954Y262010D01*
X211249Y261718D01*
X210950Y261562D01*
X210651Y261718D01*
X209946Y262010D01*
X209217Y262240D01*
X208471Y262405D01*
X207713Y262505D01*
X206950Y262538D01*
X206187Y262505D01*
X205429Y262405D01*
X204683Y262240D01*
X203955Y262010D01*
X203249Y261718D01*
X202571Y261365D01*
X201926Y260954D01*
X201320Y260489D01*
X200757Y259973D01*
X200241Y259410D01*
X199776Y258804D01*
X199365Y258159D01*
X199012Y257481D01*
X198720Y256776D01*
X198490Y256047D01*
X198325Y255301D01*
X198225Y254543D01*
X198192Y253780D01*
Y246277D01*
X197728Y245502D01*
X196953Y245038D01*
X189450D01*
X188687Y245005D01*
X187929Y244905D01*
X187183Y244740D01*
X186454Y244510D01*
X185749Y244218D01*
X185071Y243865D01*
X184426Y243454D01*
X183820Y242989D01*
X183257Y242473D01*
X182741Y241910D01*
X182276Y241304D01*
X181865Y240659D01*
X181512Y239981D01*
X181220Y239275D01*
X180990Y238547D01*
X180825Y237801D01*
X180725Y237043D01*
X180692Y236280D01*
X180725Y235517D01*
X180825Y234759D01*
X180990Y234013D01*
X181220Y233284D01*
X181512Y232579D01*
X181668Y232280D01*
X181512Y231981D01*
X181220Y231276D01*
X180990Y230547D01*
X180825Y229801D01*
X180725Y229043D01*
X180692Y228280D01*
X180725Y227517D01*
X180825Y226759D01*
X180990Y226013D01*
X181220Y225285D01*
X181512Y224579D01*
X181668Y224280D01*
X181512Y223981D01*
X181220Y223276D01*
X180990Y222547D01*
X180825Y221801D01*
X180725Y221043D01*
X180692Y220280D01*
X180725Y219517D01*
X180825Y218759D01*
X180990Y218013D01*
X181220Y217285D01*
X181512Y216579D01*
X181649Y216316D01*
X181094Y215230D01*
X150500D01*
Y220259D01*
X150979Y220702D01*
X151638Y221414D01*
X152239Y222176D01*
X152778Y222983D01*
X153252Y223830D01*
X153659Y224711D01*
X153995Y225622D01*
X154258Y226556D01*
X154447Y227508D01*
X154561Y228472D01*
X154600Y229441D01*
X154561Y230411D01*
X154447Y231375D01*
X154258Y232327D01*
X153995Y233261D01*
X153659Y234171D01*
X153252Y235052D01*
X152778Y235899D01*
X152239Y236706D01*
X151638Y237468D01*
X150979Y238181D01*
X150267Y238839D01*
X149505Y239440D01*
X148698Y239979D01*
X147851Y240454D01*
X146970Y240860D01*
X146059Y241196D01*
X145125Y241459D01*
X144173Y241649D01*
X143210Y241763D01*
X142240Y241801D01*
X141270Y241763D01*
X140307Y241649D01*
X139355Y241459D01*
X138421Y241196D01*
X137510Y240860D01*
X136629Y240454D01*
X135782Y239979D01*
X134975Y239440D01*
X134213Y238839D01*
X133500Y238181D01*
X132842Y237468D01*
X132241Y236706D01*
X131702Y235899D01*
X131228Y235052D01*
X130821Y234171D01*
X130485Y233261D01*
X130222Y232327D01*
X130033Y231375D01*
X129919Y230411D01*
X129881Y229441D01*
X129919Y228472D01*
X130033Y227508D01*
X130222Y226556D01*
X130485Y225622D01*
X130821Y224711D01*
X131228Y223830D01*
X131702Y222983D01*
X132241Y222176D01*
X132842Y221414D01*
X133500Y220702D01*
X133980Y220259D01*
Y215230D01*
X128240D01*
Y193230D01*
X128270Y193200D01*
Y181610D01*
X131700D01*
Y175500D01*
X142240D01*
Y174230D01*
X143510D01*
Y166690D01*
X152780D01*
X153640Y165776D01*
Y163230D01*
X156631D01*
Y158230D01*
X152920Y154518D01*
X113780D01*
X102369Y165930D01*
Y166370D01*
X102334Y167417D01*
X102312Y167640D01*
X102334Y167863D01*
X102369Y168910D01*
Y315461D01*
X188280D01*
Y307340D01*
D02*
G37*
G36*
X399649Y305422D02*
X398810Y304465D01*
X398804Y304469D01*
X398149Y304886D01*
X397461Y305245D01*
X396744Y305542D01*
X396003Y305775D01*
X395245Y305943D01*
X394970Y305979D01*
Y298450D01*
X402500D01*
X402463Y298725D01*
X402295Y299483D01*
X402062Y300224D01*
X401765Y300941D01*
X401406Y301629D01*
X400989Y302284D01*
X400985Y302290D01*
X401942Y303129D01*
X409441Y295629D01*
Y274256D01*
X408363Y273818D01*
X408171Y273815D01*
X407690Y274340D01*
X400680Y281350D01*
X400101Y281881D01*
X399477Y282359D01*
X398814Y282782D01*
X398117Y283145D01*
X397391Y283445D01*
X396642Y283682D01*
X395874Y283852D01*
X395095Y283954D01*
X394310Y283989D01*
X370140D01*
X369943Y283980D01*
X359140D01*
X359140Y283980D01*
X359140Y291480D01*
X357140Y293480D01*
X357140Y293480D01*
X357131Y294746D01*
X357131Y314960D01*
X357131Y314960D01*
X357131D01*
X358229Y315461D01*
X389609D01*
X399649Y305422D01*
D02*
G37*
G36*
X183257Y174087D02*
X183820Y173571D01*
X184426Y173106D01*
X185071Y172695D01*
X185749Y172342D01*
X186454Y172050D01*
X187183Y171820D01*
X187929Y171655D01*
X188687Y171555D01*
X189450Y171522D01*
X196953D01*
X197728Y171058D01*
X198192Y170283D01*
Y162780D01*
X198225Y162017D01*
X198325Y161259D01*
X198490Y160513D01*
X198720Y159784D01*
X199012Y159079D01*
X199365Y158401D01*
X199776Y157756D01*
X200241Y157150D01*
X200757Y156587D01*
X201320Y156071D01*
X201926Y155606D01*
X202571Y155195D01*
X203249Y154842D01*
X203955Y154550D01*
X204683Y154320D01*
X205429Y154155D01*
X206187Y154055D01*
X206950Y154022D01*
X207713Y154055D01*
X208471Y154155D01*
X209217Y154320D01*
X209946Y154550D01*
X210651Y154842D01*
X210950Y154998D01*
X211249Y154842D01*
X211954Y154550D01*
X212683Y154320D01*
X213429Y154155D01*
X214187Y154055D01*
X214950Y154022D01*
X215713Y154055D01*
X216471Y154155D01*
X217217Y154320D01*
X217945Y154550D01*
X218651Y154842D01*
X219329Y155195D01*
X219974Y155606D01*
X220580Y156071D01*
X220592Y156082D01*
X222035Y155850D01*
X222116Y155783D01*
X222173Y155426D01*
X221754Y154798D01*
X221331Y154044D01*
X220970Y153259D01*
X220670Y152448D01*
X220436Y151616D01*
X220267Y150768D01*
X220166Y149910D01*
X220131Y149046D01*
Y141886D01*
X220077Y141612D01*
X219975Y140754D01*
X219942Y139890D01*
Y137190D01*
X219900D01*
Y133730D01*
X202170D01*
Y123190D01*
Y112650D01*
X204470D01*
Y108687D01*
X199900D01*
Y98147D01*
Y87607D01*
X204470D01*
Y84589D01*
X131091D01*
X102369Y113311D01*
Y133331D01*
X103096Y133855D01*
X103639Y134028D01*
X104222Y133701D01*
X105007Y133340D01*
X105818Y133040D01*
X106650Y132806D01*
X107498Y132637D01*
X108356Y132535D01*
X109220Y132501D01*
X157480D01*
X158344Y132535D01*
X159202Y132637D01*
X160050Y132806D01*
X160882Y133040D01*
X161693Y133340D01*
X162478Y133701D01*
X163232Y134124D01*
X163951Y134604D01*
X164629Y135139D01*
X165264Y135726D01*
X175424Y145886D01*
X176011Y146521D01*
X176546Y147199D01*
X177026Y147918D01*
X177449Y148672D01*
X177810Y149457D01*
X178110Y150268D01*
X178344Y151100D01*
X178513Y151948D01*
X178615Y152806D01*
X178648Y153670D01*
Y163230D01*
X181640D01*
Y173999D01*
X182228Y174347D01*
X182910Y174466D01*
X183257Y174087D01*
D02*
G37*
G36*
X232241Y240150D02*
X232757Y239587D01*
X233320Y239071D01*
X233926Y238606D01*
X234571Y238195D01*
X235249Y237842D01*
X235954Y237550D01*
X236683Y237320D01*
X237429Y237155D01*
X238187Y237055D01*
X238950Y237022D01*
X239713Y237055D01*
X240471Y237155D01*
X241217Y237320D01*
X241945Y237550D01*
X242651Y237842D01*
X242950Y237998D01*
X243249Y237842D01*
X243955Y237550D01*
X244683Y237320D01*
X245429Y237155D01*
X245941Y237087D01*
Y215501D01*
X240010Y209570D01*
X239479Y208991D01*
X239001Y208367D01*
X238578Y207704D01*
X238215Y207007D01*
X237915Y206281D01*
X237678Y205532D01*
X237508Y204764D01*
X237406Y203985D01*
X237371Y203200D01*
Y180340D01*
X237406Y179555D01*
X237508Y178776D01*
X237624Y178255D01*
X236950Y177664D01*
X236488Y177559D01*
X235973Y177954D01*
X235329Y178365D01*
X234651Y178718D01*
X233946Y179010D01*
X233217Y179240D01*
X232471Y179405D01*
X231713Y179505D01*
X230950Y179538D01*
X230187Y179505D01*
X229429Y179405D01*
X228683Y179240D01*
X227955Y179010D01*
X227249Y178718D01*
X226571Y178365D01*
X225926Y177954D01*
X225320Y177489D01*
X224757Y176973D01*
X224241Y176410D01*
X223913Y175982D01*
X223543Y176045D01*
X222950Y176078D01*
X222357Y176045D01*
X221987Y175982D01*
X221659Y176410D01*
X221143Y176973D01*
X220580Y177489D01*
X219974Y177954D01*
X219329Y178365D01*
X218651Y178718D01*
X217945Y179010D01*
X217217Y179240D01*
X216471Y179405D01*
X215713Y179505D01*
X214950Y179538D01*
X214187Y179505D01*
X213429Y179405D01*
X212683Y179240D01*
X211954Y179010D01*
X211249Y178718D01*
X210950Y178562D01*
X210651Y178718D01*
X209946Y179010D01*
X209217Y179240D01*
X208471Y179405D01*
X207713Y179505D01*
X206950Y179538D01*
X206208Y180280D01*
X206175Y181043D01*
X206075Y181801D01*
X205910Y182547D01*
X205680Y183276D01*
X205388Y183981D01*
X205232Y184280D01*
X205388Y184579D01*
X205680Y185285D01*
X205910Y186013D01*
X206075Y186759D01*
X206175Y187517D01*
X206208Y188280D01*
X206175Y189043D01*
X206075Y189801D01*
X205910Y190547D01*
X205680Y191276D01*
X205388Y191981D01*
X205232Y192280D01*
X205388Y192579D01*
X205680Y193284D01*
X205910Y194013D01*
X206075Y194759D01*
X206175Y195517D01*
X206208Y196280D01*
X206175Y197043D01*
X206075Y197801D01*
X205910Y198547D01*
X205680Y199275D01*
X205388Y199981D01*
X205232Y200280D01*
X205388Y200579D01*
X205680Y201285D01*
X205910Y202013D01*
X206075Y202759D01*
X206175Y203517D01*
X206208Y204280D01*
X206175Y205043D01*
X206075Y205801D01*
X205910Y206547D01*
X205680Y207276D01*
X205388Y207981D01*
X205232Y208280D01*
X205388Y208579D01*
X205680Y209284D01*
X205910Y210013D01*
X206075Y210759D01*
X206175Y211517D01*
X206208Y212280D01*
X206175Y213043D01*
X206075Y213801D01*
X205910Y214547D01*
X205680Y215275D01*
X205388Y215981D01*
X205232Y216280D01*
X205388Y216579D01*
X205680Y217285D01*
X205910Y218013D01*
X206075Y218759D01*
X206175Y219517D01*
X206208Y220280D01*
X206175Y221043D01*
X206075Y221801D01*
X205910Y222547D01*
X205680Y223276D01*
X205388Y223981D01*
X205232Y224280D01*
X205388Y224579D01*
X205680Y225285D01*
X205910Y226013D01*
X206075Y226759D01*
X206175Y227517D01*
X206208Y228280D01*
X206175Y229043D01*
X206075Y229801D01*
X205910Y230547D01*
X205680Y231276D01*
X205388Y231981D01*
X205232Y232280D01*
X205388Y232579D01*
X205680Y233284D01*
X205910Y234013D01*
X206075Y234759D01*
X206175Y235517D01*
X206208Y236280D01*
X206950Y237022D01*
X207713Y237055D01*
X208471Y237155D01*
X209217Y237320D01*
X209946Y237550D01*
X210651Y237842D01*
X210950Y237998D01*
X211249Y237842D01*
X211954Y237550D01*
X212683Y237320D01*
X213429Y237155D01*
X214187Y237055D01*
X214950Y237022D01*
X215713Y237055D01*
X216471Y237155D01*
X217217Y237320D01*
X217945Y237550D01*
X218651Y237842D01*
X218950Y237998D01*
X219249Y237842D01*
X219954Y237550D01*
X220683Y237320D01*
X221429Y237155D01*
X222187Y237055D01*
X222950Y237022D01*
X223713Y237055D01*
X224471Y237155D01*
X225217Y237320D01*
X225945Y237550D01*
X226651Y237842D01*
X227329Y238195D01*
X227973Y238606D01*
X228580Y239071D01*
X229143Y239587D01*
X229659Y240150D01*
X229987Y240578D01*
X230357Y240515D01*
X230950Y240482D01*
X231543Y240515D01*
X231913Y240578D01*
X232241Y240150D01*
D02*
G37*
%LPC*%
G36*
X194550Y279400D02*
X188280D01*
Y270130D01*
X194550D01*
Y279400D01*
D02*
G37*
G36*
Y291210D02*
X188280D01*
Y281940D01*
X194550D01*
Y291210D01*
D02*
G37*
G36*
X168910Y305979D02*
Y298450D01*
X176439D01*
X176403Y298725D01*
X176235Y299483D01*
X176002Y300224D01*
X175705Y300941D01*
X175346Y301629D01*
X174929Y302284D01*
X174457Y302900D01*
X173932Y303472D01*
X173360Y303997D01*
X172744Y304469D01*
X172089Y304886D01*
X171401Y305245D01*
X170683Y305542D01*
X169943Y305775D01*
X169185Y305943D01*
X168910Y305979D01*
D02*
G37*
G36*
X176439Y295910D02*
X168910D01*
Y288381D01*
X169185Y288417D01*
X169943Y288585D01*
X170683Y288818D01*
X171401Y289115D01*
X172089Y289474D01*
X172744Y289891D01*
X173360Y290363D01*
X173932Y290888D01*
X174457Y291460D01*
X174929Y292076D01*
X175346Y292731D01*
X175705Y293419D01*
X176002Y294137D01*
X176235Y294877D01*
X176403Y295635D01*
X176439Y295910D01*
D02*
G37*
G36*
X140970Y172960D02*
X131700D01*
Y166690D01*
X140970D01*
Y172960D01*
D02*
G37*
G36*
X113030Y187960D02*
X105500D01*
X105537Y187685D01*
X105705Y186927D01*
X105938Y186187D01*
X106235Y185469D01*
X106594Y184781D01*
X107011Y184126D01*
X107483Y183510D01*
X108008Y182938D01*
X108580Y182413D01*
X109196Y181941D01*
X109851Y181524D01*
X110539Y181165D01*
X111257Y180868D01*
X111997Y180635D01*
X112755Y180467D01*
X113030Y180431D01*
Y187960D01*
D02*
G37*
G36*
X123099D02*
X115570D01*
Y180431D01*
X115845Y180467D01*
X116603Y180635D01*
X117344Y180868D01*
X118061Y181165D01*
X118749Y181524D01*
X119404Y181941D01*
X120020Y182413D01*
X120592Y182938D01*
X121117Y183510D01*
X121589Y184126D01*
X122006Y184781D01*
X122365Y185469D01*
X122662Y186187D01*
X122895Y186927D01*
X123063Y187685D01*
X123099Y187960D01*
D02*
G37*
G36*
X166370Y295910D02*
X158841D01*
X158877Y295635D01*
X159045Y294877D01*
X159278Y294137D01*
X159575Y293419D01*
X159934Y292731D01*
X160351Y292076D01*
X160823Y291460D01*
X161348Y290888D01*
X161920Y290363D01*
X162536Y289891D01*
X163191Y289474D01*
X163879Y289115D01*
X164597Y288818D01*
X165337Y288585D01*
X166095Y288417D01*
X166370Y288381D01*
Y295910D01*
D02*
G37*
G36*
X113030Y198029D02*
X112755Y197993D01*
X111997Y197825D01*
X111257Y197592D01*
X110539Y197295D01*
X109851Y196936D01*
X109196Y196519D01*
X108580Y196047D01*
X108008Y195522D01*
X107483Y194950D01*
X107011Y194334D01*
X106594Y193679D01*
X106235Y192991D01*
X105938Y192274D01*
X105705Y191533D01*
X105537Y190775D01*
X105500Y190500D01*
X113030D01*
Y198029D01*
D02*
G37*
G36*
X166370Y305979D02*
X166095Y305943D01*
X165337Y305775D01*
X164597Y305542D01*
X163879Y305245D01*
X163191Y304886D01*
X162536Y304469D01*
X161920Y303997D01*
X161348Y303472D01*
X160823Y302900D01*
X160351Y302284D01*
X159934Y301629D01*
X159575Y300941D01*
X159278Y300224D01*
X159045Y299483D01*
X158877Y298725D01*
X158841Y298450D01*
X166370D01*
Y305979D01*
D02*
G37*
G36*
X194550Y304800D02*
X188280D01*
Y295530D01*
X194550D01*
Y304800D01*
D02*
G37*
G36*
X115570Y198029D02*
Y190500D01*
X123099D01*
X123063Y190775D01*
X122895Y191533D01*
X122662Y192274D01*
X122365Y192991D01*
X122006Y193679D01*
X121589Y194334D01*
X121117Y194950D01*
X120592Y195522D01*
X120020Y196047D01*
X119404Y196519D01*
X118749Y196936D01*
X118061Y197295D01*
X117344Y197592D01*
X116603Y197825D01*
X115845Y197993D01*
X115570Y198029D01*
D02*
G37*
G36*
X392430Y305979D02*
X392155Y305943D01*
X391397Y305775D01*
X390657Y305542D01*
X389939Y305245D01*
X389251Y304886D01*
X388596Y304469D01*
X387980Y303997D01*
X387408Y303472D01*
X386883Y302900D01*
X386411Y302284D01*
X385994Y301629D01*
X385635Y300941D01*
X385338Y300224D01*
X385105Y299483D01*
X384937Y298725D01*
X384901Y298450D01*
X392430D01*
Y305979D01*
D02*
G37*
G36*
Y295910D02*
X384901D01*
X384937Y295635D01*
X385105Y294877D01*
X385338Y294137D01*
X385635Y293419D01*
X385994Y292731D01*
X386411Y292076D01*
X386883Y291460D01*
X387408Y290888D01*
X387980Y290363D01*
X388596Y289891D01*
X389251Y289474D01*
X389939Y289115D01*
X390657Y288818D01*
X391397Y288585D01*
X392155Y288417D01*
X392430Y288381D01*
Y295910D01*
D02*
G37*
G36*
X368870Y292710D02*
X362600D01*
Y288440D01*
X368870D01*
Y292710D01*
D02*
G37*
G36*
X402500Y295910D02*
X394970D01*
Y288381D01*
X395245Y288417D01*
X396003Y288585D01*
X396744Y288818D01*
X397461Y289115D01*
X398149Y289474D01*
X398804Y289891D01*
X399420Y290363D01*
X399992Y290888D01*
X400517Y291460D01*
X400989Y292076D01*
X401406Y292731D01*
X401765Y293419D01*
X402062Y294137D01*
X402295Y294877D01*
X402463Y295635D01*
X402500Y295910D01*
D02*
G37*
G36*
X377680Y292710D02*
X371410D01*
Y288440D01*
X377680D01*
Y292710D01*
D02*
G37*
G36*
Y299520D02*
X371410D01*
Y295250D01*
X377680D01*
Y299520D01*
D02*
G37*
G36*
X368870D02*
X362600D01*
Y295250D01*
X368870D01*
Y299520D01*
D02*
G37*
G36*
X153670Y109220D02*
X146140D01*
X146177Y108945D01*
X146345Y108187D01*
X146578Y107446D01*
X146875Y106729D01*
X147234Y106041D01*
X147651Y105386D01*
X148123Y104770D01*
X148648Y104198D01*
X149220Y103673D01*
X149836Y103201D01*
X150491Y102784D01*
X151179Y102425D01*
X151896Y102128D01*
X152637Y101895D01*
X153395Y101727D01*
X153670Y101691D01*
Y109220D01*
D02*
G37*
G36*
X163739D02*
X156210D01*
Y101691D01*
X156485Y101727D01*
X157243Y101895D01*
X157984Y102128D01*
X158701Y102425D01*
X159389Y102784D01*
X160044Y103201D01*
X160660Y103673D01*
X161232Y104198D01*
X161757Y104770D01*
X162229Y105386D01*
X162646Y106041D01*
X163005Y106729D01*
X163302Y107446D01*
X163535Y108187D01*
X163703Y108945D01*
X163739Y109220D01*
D02*
G37*
G36*
X197360Y96877D02*
X190090D01*
Y87607D01*
X197360D01*
Y96877D01*
D02*
G37*
G36*
Y108687D02*
X190090D01*
Y99417D01*
X197360D01*
Y108687D01*
D02*
G37*
G36*
X153670Y119290D02*
X153395Y119253D01*
X152637Y119085D01*
X151896Y118852D01*
X151179Y118555D01*
X150491Y118196D01*
X149836Y117779D01*
X149220Y117307D01*
X148648Y116782D01*
X148123Y116210D01*
X147651Y115594D01*
X147234Y114939D01*
X146875Y114251D01*
X146578Y113533D01*
X146345Y112793D01*
X146177Y112035D01*
X146140Y111760D01*
X153670D01*
Y119290D01*
D02*
G37*
G36*
X156210D02*
Y111760D01*
X163739D01*
X163703Y112035D01*
X163535Y112793D01*
X163302Y113533D01*
X163005Y114251D01*
X162646Y114939D01*
X162229Y115594D01*
X161757Y116210D01*
X161232Y116782D01*
X160660Y117307D01*
X160044Y117779D01*
X159389Y118196D01*
X158701Y118555D01*
X157984Y118852D01*
X157243Y119085D01*
X156485Y119253D01*
X156210Y119290D01*
D02*
G37*
G36*
X199630Y121920D02*
X193360D01*
Y112650D01*
X199630D01*
Y121920D01*
D02*
G37*
G36*
Y133730D02*
X193360D01*
Y124460D01*
X199630D01*
Y133730D01*
D02*
G37*
G36*
X1140237Y265430D02*
X1129030D01*
Y254223D01*
X1129723Y254305D01*
X1130690Y254497D01*
X1131638Y254764D01*
X1132563Y255106D01*
X1133457Y255518D01*
X1134317Y256000D01*
X1135136Y256547D01*
X1135910Y257157D01*
X1136634Y257826D01*
X1137303Y258550D01*
X1137913Y259324D01*
X1138460Y260143D01*
X1138942Y261003D01*
X1139354Y261897D01*
X1139696Y262822D01*
X1139963Y263770D01*
X1140155Y264737D01*
X1140237Y265430D01*
D02*
G37*
G36*
Y290830D02*
X1127760D01*
X1115283D01*
X1115365Y290137D01*
X1115557Y289170D01*
X1115825Y288222D01*
X1116166Y287297D01*
X1116578Y286403D01*
X1117060Y285543D01*
X1117607Y284723D01*
X1118217Y283950D01*
X1118886Y283226D01*
X1119610Y282557D01*
X1120384Y281947D01*
X1121203Y281400D01*
X1122063Y280918D01*
X1122957Y280506D01*
X1123882Y280165D01*
X1124253Y280060D01*
Y278740D01*
X1123882Y278636D01*
X1122957Y278294D01*
X1122063Y277882D01*
X1121203Y277400D01*
X1120384Y276853D01*
X1119610Y276243D01*
X1118886Y275574D01*
X1118217Y274850D01*
X1117607Y274076D01*
X1117060Y273257D01*
X1116578Y272397D01*
X1116166Y271503D01*
X1115825Y270578D01*
X1115557Y269630D01*
X1115365Y268663D01*
X1115283Y267970D01*
X1127760D01*
X1140237D01*
X1140155Y268663D01*
X1139963Y269630D01*
X1139696Y270578D01*
X1139354Y271503D01*
X1138942Y272397D01*
X1138460Y273257D01*
X1137913Y274076D01*
X1137303Y274850D01*
X1136634Y275574D01*
X1135910Y276243D01*
X1135136Y276853D01*
X1134317Y277400D01*
X1133457Y277882D01*
X1132563Y278294D01*
X1131638Y278636D01*
X1131267Y278740D01*
Y280060D01*
X1131638Y280165D01*
X1132563Y280506D01*
X1133457Y280918D01*
X1134317Y281400D01*
X1135136Y281947D01*
X1135910Y282557D01*
X1136634Y283226D01*
X1137303Y283950D01*
X1137913Y284723D01*
X1138460Y285543D01*
X1138942Y286403D01*
X1139354Y287297D01*
X1139696Y288222D01*
X1139963Y289170D01*
X1140155Y290137D01*
X1140237Y290830D01*
D02*
G37*
G36*
X962660Y283720D02*
X953390D01*
Y276450D01*
X962660D01*
Y283720D01*
D02*
G37*
G36*
Y293530D02*
X953390D01*
Y286260D01*
X962660D01*
Y293530D01*
D02*
G37*
G36*
X974470Y283720D02*
X965200D01*
Y276450D01*
X974470D01*
Y283720D01*
D02*
G37*
G36*
X1006217Y298260D02*
X978217D01*
Y276260D01*
X984131D01*
Y262448D01*
X983742Y262027D01*
X983141Y261265D01*
X982602Y260458D01*
X982128Y259611D01*
X981721Y258730D01*
X981385Y257819D01*
X981122Y256885D01*
X980933Y255933D01*
X980819Y254970D01*
X980780Y254000D01*
X980819Y253030D01*
X980933Y252067D01*
X981122Y251115D01*
X981385Y250181D01*
X981721Y249270D01*
X982128Y248389D01*
X982308Y248067D01*
X981644Y246803D01*
X977870Y246840D01*
Y234980D01*
X979140Y233710D01*
Y218630D01*
X1007140D01*
Y240630D01*
X1005840D01*
Y246540D01*
X1005870Y246570D01*
X1004565Y246583D01*
X1004207Y246970D01*
X1003856Y247859D01*
X1004152Y248389D01*
X1004559Y249270D01*
X1004895Y250181D01*
X1005158Y251115D01*
X1005347Y252067D01*
X1005461Y253030D01*
X1005499Y254000D01*
X1005461Y254970D01*
X1005347Y255933D01*
X1005158Y256885D01*
X1004895Y257819D01*
X1004559Y258730D01*
X1004152Y259611D01*
X1003678Y260458D01*
X1003139Y261265D01*
X1002538Y262027D01*
X1002149Y262448D01*
Y276260D01*
X1006217D01*
Y298260D01*
D02*
G37*
G36*
X1126490Y265430D02*
X1115283D01*
X1115365Y264737D01*
X1115557Y263770D01*
X1115825Y262822D01*
X1116166Y261897D01*
X1116578Y261003D01*
X1117060Y260143D01*
X1117607Y259324D01*
X1118217Y258550D01*
X1118886Y257826D01*
X1119610Y257157D01*
X1120384Y256547D01*
X1121203Y256000D01*
X1122063Y255518D01*
X1122957Y255106D01*
X1123882Y254764D01*
X1124830Y254497D01*
X1125797Y254305D01*
X1126490Y254223D01*
Y265430D01*
D02*
G37*
G36*
X529590Y311059D02*
X529315Y311023D01*
X528557Y310855D01*
X527817Y310622D01*
X527099Y310325D01*
X526411Y309966D01*
X525756Y309549D01*
X525140Y309077D01*
X524568Y308552D01*
X524043Y307980D01*
X523571Y307364D01*
X523154Y306709D01*
X522795Y306021D01*
X522498Y305303D01*
X522265Y304563D01*
X522097Y303805D01*
X522061Y303530D01*
X529590D01*
Y311059D01*
D02*
G37*
G36*
X532130D02*
Y303530D01*
X539660D01*
X539623Y303805D01*
X539455Y304563D01*
X539222Y305303D01*
X538925Y306021D01*
X538566Y306709D01*
X538149Y307364D01*
X537677Y307980D01*
X537152Y308552D01*
X536580Y309077D01*
X535964Y309549D01*
X535309Y309966D01*
X534621Y310325D01*
X533904Y310622D01*
X533163Y310855D01*
X532405Y311023D01*
X532130Y311059D01*
D02*
G37*
G36*
X1138300Y496922D02*
X1117220D01*
Y491490D01*
X1113790D01*
X1113760Y491460D01*
Y479193D01*
Y457193D01*
X1114457D01*
X1114573Y457106D01*
X1115169Y455923D01*
X1115108Y455822D01*
X1114804Y455178D01*
X1114564Y454507D01*
X1114391Y453816D01*
X1114286Y453111D01*
X1114251Y452400D01*
Y444900D01*
X1114286Y444188D01*
X1114391Y443484D01*
X1114564Y442793D01*
X1114804Y442122D01*
X1115108Y441478D01*
X1115475Y440867D01*
X1115899Y440295D01*
X1116377Y439767D01*
X1116905Y439289D01*
X1117477Y438865D01*
X1117477Y437435D01*
X1116905Y437011D01*
X1116377Y436533D01*
X1115899Y436005D01*
X1115475Y435433D01*
X1115108Y434822D01*
X1114804Y434178D01*
X1114564Y433507D01*
X1114391Y432816D01*
X1114286Y432112D01*
X1114251Y431400D01*
Y423900D01*
X1114286Y423189D01*
X1114391Y422484D01*
X1114564Y421793D01*
X1114804Y421122D01*
X1115108Y420478D01*
X1115475Y419867D01*
X1115899Y419295D01*
X1116377Y418767D01*
X1116905Y418289D01*
X1117477Y417865D01*
X1118088Y417498D01*
X1118732Y417194D01*
X1119403Y416954D01*
X1120094Y416781D01*
X1120798Y416676D01*
X1121510Y416641D01*
X1134010D01*
X1134722Y416676D01*
X1135426Y416781D01*
X1136117Y416954D01*
X1136788Y417194D01*
X1137432Y417498D01*
X1137669Y417640D01*
X1145544D01*
X1150770Y412414D01*
Y359746D01*
X1143934Y352910D01*
X1140244D01*
X1139796Y353455D01*
X1139080Y354220D01*
X1138315Y354936D01*
X1137505Y355600D01*
X1136654Y356211D01*
X1135764Y356764D01*
X1135535Y356886D01*
X1135371Y357404D01*
X1135430Y358379D01*
X1135910Y358757D01*
X1136634Y359426D01*
X1137303Y360150D01*
X1137913Y360924D01*
X1138460Y361743D01*
X1138942Y362603D01*
X1139354Y363497D01*
X1139696Y364422D01*
X1139963Y365370D01*
X1140155Y366337D01*
X1140237Y367030D01*
X1127760D01*
X1115283D01*
X1115365Y366337D01*
X1115557Y365370D01*
X1115825Y364422D01*
X1116166Y363497D01*
X1116578Y362603D01*
X1117060Y361743D01*
X1117607Y360924D01*
X1118217Y360150D01*
X1118886Y359426D01*
X1119610Y358757D01*
X1120090Y358379D01*
X1120148Y357404D01*
X1119985Y356886D01*
X1119756Y356764D01*
X1118866Y356211D01*
X1118015Y355600D01*
X1117205Y354936D01*
X1116440Y354220D01*
X1115724Y353455D01*
X1115060Y352645D01*
X1114449Y351794D01*
X1113896Y350904D01*
X1113402Y349980D01*
X1112970Y349026D01*
X1112601Y348046D01*
X1112297Y347043D01*
X1112059Y346023D01*
X1111888Y344990D01*
X1111786Y343947D01*
X1111751Y342900D01*
Y342209D01*
X1097280D01*
X1096338Y342172D01*
X1095401Y342061D01*
X1094476Y341877D01*
X1093569Y341622D01*
X1092684Y341295D01*
X1091828Y340900D01*
X1091005Y340440D01*
X1090221Y339916D01*
X1089481Y339332D01*
X1089347Y339209D01*
X1076960D01*
X1076949Y339208D01*
X1067860D01*
X1067198Y339176D01*
X1066542Y339078D01*
X1065898Y338917D01*
X1065274Y338694D01*
X1064674Y338410D01*
X1064105Y338069D01*
X1063573Y337674D01*
X1063081Y337229D01*
X1062636Y336737D01*
X1062241Y336205D01*
X1061900Y335636D01*
X1061616Y335036D01*
X1061393Y334412D01*
X1061232Y333768D01*
X1061134Y333112D01*
X1061102Y332450D01*
Y327950D01*
X1061134Y327288D01*
X1061232Y326632D01*
X1061393Y325988D01*
X1061616Y325364D01*
X1061900Y324764D01*
X1062241Y324195D01*
X1062497Y323850D01*
X1062241Y323505D01*
X1061900Y322936D01*
X1061616Y322336D01*
X1061393Y321712D01*
X1061232Y321068D01*
X1061134Y320412D01*
X1061102Y319750D01*
Y315250D01*
X1061112Y315052D01*
X1061049Y314505D01*
X1060191Y313677D01*
X1060001Y313631D01*
X1059418Y313502D01*
X1058669Y313265D01*
X1057943Y312965D01*
X1057246Y312602D01*
X1056583Y312179D01*
X1055959Y311701D01*
X1055380Y311170D01*
X1051540Y307330D01*
X1051009Y306751D01*
X1050531Y306127D01*
X1050108Y305464D01*
X1049745Y304767D01*
X1049445Y304041D01*
X1049208Y303292D01*
X1049038Y302524D01*
X1048936Y301745D01*
X1048901Y300960D01*
Y262443D01*
X1048536Y262104D01*
X1047877Y261392D01*
X1047276Y260630D01*
X1046737Y259823D01*
X1046263Y258976D01*
X1045856Y258095D01*
X1045520Y257184D01*
X1045257Y256250D01*
X1045068Y255298D01*
X1044954Y254335D01*
X1044915Y253365D01*
X1044954Y252395D01*
X1045068Y251432D01*
X1045257Y250480D01*
X1045520Y249546D01*
X1045856Y248635D01*
X1046263Y247754D01*
X1046737Y246907D01*
X1047276Y246100D01*
X1047877Y245338D01*
X1048536Y244625D01*
X1049248Y243967D01*
X1050010Y243366D01*
X1050817Y242827D01*
X1051664Y242353D01*
X1052545Y241946D01*
X1053456Y241610D01*
X1054390Y241347D01*
X1055342Y241158D01*
X1056305Y241044D01*
X1057275Y241005D01*
X1058245Y241044D01*
X1059208Y241158D01*
X1060160Y241347D01*
X1061094Y241610D01*
X1062005Y241946D01*
X1062886Y242353D01*
X1063733Y242827D01*
X1064540Y243366D01*
X1065302Y243967D01*
X1066014Y244625D01*
X1066673Y245338D01*
X1067274Y246100D01*
X1067813Y246907D01*
X1068287Y247754D01*
X1068694Y248635D01*
X1069030Y249546D01*
X1069293Y250480D01*
X1069482Y251432D01*
X1069596Y252395D01*
X1069634Y253365D01*
X1069596Y254335D01*
X1069482Y255298D01*
X1069293Y256250D01*
X1069030Y257184D01*
X1068694Y258095D01*
X1068287Y258976D01*
X1067813Y259823D01*
X1067274Y260630D01*
X1066919Y261081D01*
Y285388D01*
X1067029Y285645D01*
X1067860Y286553D01*
X1075690D01*
Y292100D01*
X1076960D01*
Y293370D01*
X1089357D01*
Y294350D01*
X1089329Y294780D01*
X1089245Y295203D01*
X1089106Y295612D01*
X1089204Y296298D01*
X1089815Y296931D01*
X1090347Y297326D01*
X1090839Y297771D01*
X1091284Y298263D01*
X1091679Y298795D01*
X1092020Y299364D01*
X1092304Y299964D01*
X1092527Y300588D01*
X1092688Y301232D01*
X1092786Y301888D01*
X1092818Y302550D01*
Y307050D01*
X1092786Y307712D01*
X1092688Y308368D01*
X1092527Y309012D01*
X1092304Y309636D01*
X1092020Y310236D01*
X1091679Y310805D01*
X1091423Y311150D01*
X1091679Y311495D01*
X1092020Y312064D01*
X1092304Y312664D01*
X1092527Y313288D01*
X1092688Y313932D01*
X1092786Y314588D01*
X1092818Y315250D01*
Y317876D01*
X1094088Y318632D01*
X1094476Y318523D01*
X1095401Y318339D01*
X1096338Y318228D01*
X1097280Y318191D01*
X1111751D01*
Y317500D01*
X1111786Y316453D01*
X1111888Y315410D01*
X1112059Y314377D01*
X1112297Y313357D01*
X1112601Y312354D01*
X1112970Y311374D01*
X1113402Y310420D01*
X1113896Y309496D01*
X1114449Y308606D01*
X1115060Y307755D01*
X1115724Y306945D01*
X1116440Y306180D01*
X1117205Y305464D01*
X1118015Y304800D01*
X1118866Y304189D01*
X1119756Y303636D01*
X1119985Y303514D01*
X1120148Y302996D01*
X1120090Y302021D01*
X1119610Y301643D01*
X1118886Y300974D01*
X1118217Y300250D01*
X1117607Y299477D01*
X1117060Y298657D01*
X1116578Y297797D01*
X1116166Y296903D01*
X1115825Y295978D01*
X1115557Y295030D01*
X1115365Y294063D01*
X1115283Y293370D01*
X1127760D01*
X1140237D01*
X1140155Y294063D01*
X1139963Y295030D01*
X1139696Y295978D01*
X1139354Y296903D01*
X1138942Y297797D01*
X1138460Y298657D01*
X1137913Y299477D01*
X1137303Y300250D01*
X1136634Y300974D01*
X1135910Y301643D01*
X1135430Y302021D01*
X1135371Y302996D01*
X1135535Y303514D01*
X1135764Y303636D01*
X1136654Y304189D01*
X1137505Y304800D01*
X1138315Y305464D01*
X1139080Y306180D01*
X1139796Y306945D01*
X1140460Y307755D01*
X1141071Y308606D01*
X1141624Y309496D01*
X1142118Y310420D01*
X1142550Y311374D01*
X1142919Y312354D01*
X1143223Y313357D01*
X1143461Y314377D01*
X1143632Y315410D01*
X1143734Y316453D01*
X1143769Y317500D01*
Y332891D01*
X1148080D01*
X1148952Y332929D01*
X1149818Y333043D01*
X1150671Y333232D01*
X1151504Y333494D01*
X1152310Y333828D01*
X1153085Y334231D01*
X1153821Y334701D01*
X1154514Y335232D01*
X1155158Y335822D01*
X1167858Y348522D01*
X1168448Y349166D01*
X1168979Y349859D01*
X1169448Y350595D01*
X1169852Y351370D01*
X1170186Y352177D01*
X1170448Y353009D01*
X1170637Y353862D01*
X1170751Y354728D01*
X1170789Y355600D01*
Y416560D01*
X1170751Y417432D01*
X1170637Y418298D01*
X1170449Y419151D01*
X1170186Y419983D01*
X1169852Y420790D01*
X1169448Y421565D01*
X1168979Y422301D01*
X1168448Y422994D01*
X1167858Y423638D01*
X1156768Y434728D01*
X1156124Y435318D01*
X1155431Y435849D01*
X1154695Y436319D01*
X1153920Y436722D01*
X1153113Y437056D01*
X1152281Y437318D01*
X1151428Y437508D01*
X1150562Y437621D01*
X1149690Y437659D01*
X1138773D01*
X1138122Y438772D01*
X1138130Y438929D01*
X1138615Y439289D01*
X1139143Y439767D01*
X1139621Y440295D01*
X1140045Y440867D01*
X1140412Y441478D01*
X1140716Y442122D01*
X1140956Y442793D01*
X1141129Y443484D01*
X1141234Y444188D01*
X1141269Y444900D01*
Y452400D01*
X1141234Y453111D01*
X1141129Y453816D01*
X1140956Y454507D01*
X1140716Y455178D01*
X1140412Y455822D01*
X1140351Y455923D01*
X1140947Y457106D01*
X1141063Y457193D01*
X1141760D01*
Y479193D01*
X1141730Y479222D01*
Y491490D01*
X1138300D01*
Y496922D01*
D02*
G37*
G36*
X508000Y325078D02*
X498730D01*
Y318808D01*
X508000D01*
Y325078D01*
D02*
G37*
G36*
X519810D02*
X510540D01*
Y318808D01*
X519810D01*
Y325078D01*
D02*
G37*
G36*
X1039857Y290830D02*
X1028730D01*
Y286553D01*
X1036560D01*
X1036990Y286581D01*
X1037413Y286665D01*
X1037822Y286804D01*
X1038208Y286995D01*
X1038567Y287234D01*
X1038891Y287519D01*
X1039176Y287843D01*
X1039415Y288202D01*
X1039606Y288588D01*
X1039745Y288997D01*
X1039829Y289420D01*
X1039857Y289850D01*
Y290830D01*
D02*
G37*
G36*
X1089357D02*
X1078230D01*
Y286553D01*
X1086060D01*
X1086490Y286581D01*
X1086913Y286665D01*
X1087322Y286804D01*
X1087709Y286995D01*
X1088067Y287234D01*
X1088391Y287519D01*
X1088676Y287843D01*
X1088915Y288202D01*
X1089106Y288588D01*
X1089245Y288997D01*
X1089329Y289420D01*
X1089357Y289850D01*
Y290830D01*
D02*
G37*
G36*
X974470Y293530D02*
X965200D01*
Y286260D01*
X974470D01*
Y293530D01*
D02*
G37*
G36*
X1026190Y290830D02*
X1015063D01*
Y289850D01*
X1015091Y289420D01*
X1015175Y288997D01*
X1015314Y288588D01*
X1015505Y288202D01*
X1015744Y287843D01*
X1016029Y287519D01*
X1016353Y287234D01*
X1016712Y286995D01*
X1017098Y286804D01*
X1017507Y286665D01*
X1017930Y286581D01*
X1018360Y286553D01*
X1026190D01*
Y290830D01*
D02*
G37*
G36*
X529590Y300990D02*
X522061D01*
X522097Y300715D01*
X522265Y299957D01*
X522498Y299216D01*
X522795Y298499D01*
X523154Y297811D01*
X523571Y297156D01*
X524043Y296540D01*
X524568Y295968D01*
X525140Y295443D01*
X525756Y294971D01*
X526411Y294554D01*
X527099Y294195D01*
X527817Y293898D01*
X528557Y293665D01*
X529315Y293497D01*
X529590Y293461D01*
Y300990D01*
D02*
G37*
G36*
X539660D02*
X532130D01*
Y293461D01*
X532405Y293497D01*
X533163Y293665D01*
X533904Y293898D01*
X534621Y294195D01*
X535309Y294554D01*
X535964Y294971D01*
X536580Y295443D01*
X537152Y295968D01*
X537677Y296540D01*
X538149Y297156D01*
X538566Y297811D01*
X538925Y298499D01*
X539222Y299216D01*
X539455Y299957D01*
X539623Y300715D01*
X539660Y300990D01*
D02*
G37*
G36*
X607440Y104380D02*
X598170D01*
Y98110D01*
X607440D01*
Y104380D01*
D02*
G37*
G36*
X595630D02*
X586360D01*
Y98110D01*
X595630D01*
Y104380D01*
D02*
G37*
G36*
X554990Y34290D02*
X543814D01*
Y30226D01*
X554990D01*
Y34290D01*
D02*
G37*
G36*
X568706D02*
X557530D01*
Y30226D01*
X568706D01*
Y34290D01*
D02*
G37*
G36*
X595630Y87540D02*
X595355Y87503D01*
X594597Y87335D01*
X593857Y87102D01*
X593139Y86805D01*
X592451Y86446D01*
X591796Y86029D01*
X591180Y85557D01*
X590608Y85032D01*
X590083Y84460D01*
X589611Y83844D01*
X589194Y83189D01*
X588835Y82501D01*
X588538Y81784D01*
X588305Y81043D01*
X588137Y80285D01*
X588101Y80010D01*
X595630D01*
Y87540D01*
D02*
G37*
G36*
X598170D02*
Y80010D01*
X605700D01*
X605663Y80285D01*
X605495Y81043D01*
X605262Y81784D01*
X604965Y82501D01*
X604606Y83189D01*
X604189Y83844D01*
X603717Y84460D01*
X603192Y85032D01*
X602620Y85557D01*
X602004Y86029D01*
X601349Y86446D01*
X600661Y86805D01*
X599944Y87102D01*
X599203Y87335D01*
X598445Y87503D01*
X598170Y87540D01*
D02*
G37*
G36*
X595630Y77470D02*
X588101D01*
X588137Y77195D01*
X588305Y76437D01*
X588538Y75697D01*
X588835Y74979D01*
X589194Y74291D01*
X589611Y73636D01*
X590083Y73020D01*
X590608Y72448D01*
X591180Y71923D01*
X591796Y71451D01*
X592451Y71034D01*
X593139Y70675D01*
X593857Y70378D01*
X594597Y70145D01*
X595355Y69977D01*
X595630Y69941D01*
Y77470D01*
D02*
G37*
G36*
X605700D02*
X598170D01*
Y69941D01*
X598445Y69977D01*
X599203Y70145D01*
X599944Y70378D01*
X600661Y70675D01*
X601349Y71034D01*
X602004Y71451D01*
X602620Y71923D01*
X603192Y72448D01*
X603717Y73020D01*
X604189Y73636D01*
X604606Y74291D01*
X604965Y74979D01*
X605262Y75697D01*
X605495Y76437D01*
X605663Y77195D01*
X605700Y77470D01*
D02*
G37*
G36*
X1003680Y198360D02*
X994410D01*
Y192090D01*
X1003680D01*
Y198360D01*
D02*
G37*
G36*
X991870D02*
X982600D01*
Y192090D01*
X991870D01*
Y198360D01*
D02*
G37*
G36*
X1003680Y207170D02*
X994410D01*
Y200900D01*
X1003680D01*
Y207170D01*
D02*
G37*
G36*
X991870D02*
X982600D01*
Y200900D01*
X991870D01*
Y207170D01*
D02*
G37*
G36*
X855472Y448183D02*
X844296D01*
Y444119D01*
X855472D01*
Y448183D01*
D02*
G37*
G36*
X875030Y458880D02*
X865760D01*
Y451610D01*
X875030D01*
Y458880D01*
D02*
G37*
G36*
X841756Y448183D02*
X830580D01*
Y444119D01*
X841756D01*
Y448183D01*
D02*
G37*
G36*
X875030Y449070D02*
X865760D01*
Y441800D01*
X875030D01*
Y449070D01*
D02*
G37*
G36*
X886840D02*
X877570D01*
Y441800D01*
X886840D01*
Y449070D01*
D02*
G37*
G36*
Y458880D02*
X877570D01*
Y451610D01*
X886840D01*
Y458880D01*
D02*
G37*
G36*
X886369Y471170D02*
X878840D01*
Y463641D01*
X879115Y463677D01*
X879873Y463845D01*
X880613Y464078D01*
X881331Y464375D01*
X882019Y464734D01*
X882674Y465151D01*
X883290Y465623D01*
X883862Y466148D01*
X884387Y466720D01*
X884859Y467336D01*
X885276Y467991D01*
X885635Y468679D01*
X885932Y469397D01*
X886165Y470137D01*
X886333Y470895D01*
X886369Y471170D01*
D02*
G37*
G36*
X849628Y481329D02*
X842358D01*
Y472059D01*
X849628D01*
Y481329D01*
D02*
G37*
G36*
X876300Y471170D02*
X868771D01*
X868807Y470895D01*
X868975Y470137D01*
X869208Y469397D01*
X869505Y468679D01*
X869864Y467991D01*
X870281Y467336D01*
X870753Y466720D01*
X871278Y466148D01*
X871850Y465623D01*
X872466Y465151D01*
X873121Y464734D01*
X873809Y464375D01*
X874527Y464078D01*
X875267Y463845D01*
X876025Y463677D01*
X876300Y463641D01*
Y471170D01*
D02*
G37*
G36*
X849628Y469519D02*
X842358D01*
Y460249D01*
X849628D01*
Y469519D01*
D02*
G37*
G36*
X859438D02*
X852168D01*
Y460249D01*
X859438D01*
Y469519D01*
D02*
G37*
G36*
X639990Y419100D02*
X632460D01*
Y411571D01*
X632735Y411607D01*
X633493Y411775D01*
X634234Y412008D01*
X634951Y412305D01*
X635639Y412664D01*
X636294Y413081D01*
X636910Y413553D01*
X637482Y414078D01*
X638007Y414650D01*
X638479Y415266D01*
X638896Y415921D01*
X639255Y416609D01*
X639552Y417327D01*
X639785Y418067D01*
X639953Y418825D01*
X639990Y419100D01*
D02*
G37*
G36*
X629920D02*
X622391D01*
X622427Y418825D01*
X622595Y418067D01*
X622828Y417327D01*
X623125Y416609D01*
X623484Y415921D01*
X623901Y415266D01*
X624373Y414650D01*
X624898Y414078D01*
X625470Y413553D01*
X626086Y413081D01*
X626741Y412664D01*
X627429Y412305D01*
X628147Y412008D01*
X628887Y411775D01*
X629645Y411607D01*
X629920Y411571D01*
Y419100D01*
D02*
G37*
G36*
X604225Y426909D02*
X599948D01*
Y415782D01*
X600928D01*
X601358Y415810D01*
X601781Y415894D01*
X602190Y416033D01*
X602576Y416224D01*
X602935Y416463D01*
X603259Y416748D01*
X603544Y417072D01*
X603783Y417430D01*
X603974Y417817D01*
X604113Y418226D01*
X604197Y418649D01*
X604225Y419079D01*
Y426909D01*
D02*
G37*
G36*
X600928Y440576D02*
X599948D01*
Y429449D01*
X604225D01*
Y437279D01*
X604197Y437709D01*
X604113Y438132D01*
X603974Y438541D01*
X603783Y438927D01*
X603544Y439286D01*
X603259Y439610D01*
X602935Y439895D01*
X602576Y440134D01*
X602190Y440325D01*
X601781Y440464D01*
X601358Y440548D01*
X600928Y440576D01*
D02*
G37*
G36*
X629920Y429170D02*
X629645Y429133D01*
X628887Y428965D01*
X628147Y428732D01*
X627429Y428435D01*
X626741Y428076D01*
X626086Y427659D01*
X625470Y427187D01*
X624898Y426662D01*
X624373Y426090D01*
X623901Y425474D01*
X623484Y424819D01*
X623125Y424131D01*
X622828Y423414D01*
X622595Y422673D01*
X622427Y421915D01*
X622391Y421640D01*
X629920D01*
Y429170D01*
D02*
G37*
G36*
X632460D02*
Y421640D01*
X639990D01*
X639953Y421915D01*
X639785Y422673D01*
X639552Y423414D01*
X639255Y424131D01*
X638896Y424819D01*
X638479Y425474D01*
X638007Y426090D01*
X637482Y426662D01*
X636910Y427187D01*
X636294Y427659D01*
X635639Y428076D01*
X634951Y428435D01*
X634234Y428732D01*
X633493Y428965D01*
X632735Y429133D01*
X632460Y429170D01*
D02*
G37*
G36*
X862342Y615653D02*
X763700D01*
Y570660D01*
X862342D01*
Y615653D01*
D02*
G37*
G36*
X541260Y529970D02*
X534990D01*
Y520700D01*
X541260D01*
Y529970D01*
D02*
G37*
G36*
X479170Y513320D02*
X469900D01*
Y507050D01*
X479170D01*
Y513320D01*
D02*
G37*
G36*
X541260Y518160D02*
X534990D01*
Y508890D01*
X541260D01*
Y518160D01*
D02*
G37*
G36*
X727550Y591820D02*
X716280D01*
Y580550D01*
X727550D01*
Y591820D01*
D02*
G37*
G36*
Y605630D02*
X716280D01*
Y594360D01*
X727550D01*
Y605630D01*
D02*
G37*
G36*
X713740D02*
X702470D01*
Y598131D01*
X701204Y597893D01*
X700792Y598787D01*
X700310Y599647D01*
X699763Y600466D01*
X699153Y601240D01*
X698484Y601964D01*
X697760Y602633D01*
X696986Y603243D01*
X696167Y603790D01*
X695307Y604272D01*
X694413Y604684D01*
X693488Y605025D01*
X692540Y605293D01*
X691573Y605485D01*
X690880Y605567D01*
Y593090D01*
Y580613D01*
X691573Y580695D01*
X692540Y580887D01*
X693488Y581155D01*
X694413Y581496D01*
X695307Y581908D01*
X696167Y582390D01*
X696986Y582937D01*
X697760Y583547D01*
X698484Y584216D01*
X699153Y584940D01*
X699763Y585714D01*
X700310Y586533D01*
X700792Y587393D01*
X701204Y588287D01*
X702470Y588049D01*
Y580550D01*
X713740D01*
Y593090D01*
Y605630D01*
D02*
G37*
G36*
X508000Y605567D02*
X507307Y605485D01*
X506340Y605293D01*
X505392Y605025D01*
X504467Y604684D01*
X503573Y604272D01*
X502713Y603790D01*
X501894Y603243D01*
X501120Y602633D01*
X500396Y601964D01*
X499727Y601240D01*
X499117Y600466D01*
X498570Y599647D01*
X498088Y598787D01*
X497676Y597893D01*
X497335Y596968D01*
X497067Y596020D01*
X496875Y595053D01*
X496793Y594360D01*
X508000D01*
Y605567D01*
D02*
G37*
G36*
Y591820D02*
X496793D01*
X496875Y591127D01*
X497067Y590160D01*
X497335Y589212D01*
X497676Y588287D01*
X498088Y587393D01*
X498570Y586533D01*
X499117Y585714D01*
X499727Y584940D01*
X500396Y584216D01*
X501120Y583547D01*
X501894Y582937D01*
X502713Y582390D01*
X503573Y581908D01*
X504467Y581496D01*
X505392Y581155D01*
X506340Y580887D01*
X507307Y580695D01*
X508000Y580613D01*
Y591820D01*
D02*
G37*
G36*
X510540Y605567D02*
Y593090D01*
Y580613D01*
X511233Y580695D01*
X512200Y580887D01*
X513148Y581155D01*
X514073Y581496D01*
X514967Y581908D01*
X515827Y582390D01*
X516646Y582937D01*
X517420Y583547D01*
X518144Y584216D01*
X518813Y584940D01*
X519423Y585714D01*
X519970Y586533D01*
X520452Y587393D01*
X520864Y588287D01*
X521205Y589212D01*
X521310Y589583D01*
X522630D01*
X522734Y589212D01*
X523076Y588287D01*
X523488Y587393D01*
X523970Y586533D01*
X524517Y585714D01*
X525127Y584940D01*
X525796Y584216D01*
X526520Y583547D01*
X527294Y582937D01*
X528113Y582390D01*
X528973Y581908D01*
X529867Y581496D01*
X530792Y581155D01*
X531740Y580887D01*
X532707Y580695D01*
X533400Y580613D01*
Y593090D01*
Y605567D01*
X532707Y605485D01*
X531740Y605293D01*
X530792Y605025D01*
X529867Y604684D01*
X528973Y604272D01*
X528113Y603790D01*
X527294Y603243D01*
X526520Y602633D01*
X525796Y601964D01*
X525127Y601240D01*
X524517Y600466D01*
X523970Y599647D01*
X523488Y598787D01*
X523076Y597893D01*
X522734Y596968D01*
X522630Y596597D01*
X521310D01*
X521205Y596968D01*
X520864Y597893D01*
X520452Y598787D01*
X519970Y599647D01*
X519423Y600466D01*
X518813Y601240D01*
X518144Y601964D01*
X517420Y602633D01*
X516646Y603243D01*
X515827Y603790D01*
X514967Y604272D01*
X514073Y604684D01*
X513148Y605025D01*
X512200Y605293D01*
X511233Y605485D01*
X510540Y605567D01*
D02*
G37*
G36*
X1090930Y496570D02*
X1083400D01*
X1083437Y496295D01*
X1083605Y495537D01*
X1083838Y494796D01*
X1084135Y494079D01*
X1084494Y493391D01*
X1084911Y492736D01*
X1085383Y492120D01*
X1085908Y491548D01*
X1086480Y491023D01*
X1087096Y490551D01*
X1087751Y490134D01*
X1088439Y489775D01*
X1089156Y489478D01*
X1089897Y489245D01*
X1090655Y489077D01*
X1090930Y489040D01*
Y496570D01*
D02*
G37*
G36*
X1101000D02*
X1093470D01*
Y489040D01*
X1093745Y489077D01*
X1094503Y489245D01*
X1095244Y489478D01*
X1095961Y489775D01*
X1096649Y490134D01*
X1097304Y490551D01*
X1097920Y491023D01*
X1098492Y491548D01*
X1099017Y492120D01*
X1099489Y492736D01*
X1099906Y493391D01*
X1100265Y494079D01*
X1100562Y494796D01*
X1100795Y495537D01*
X1100963Y496295D01*
X1101000Y496570D01*
D02*
G37*
G36*
X878840Y481240D02*
Y473710D01*
X886369D01*
X886333Y473985D01*
X886165Y474743D01*
X885932Y475484D01*
X885635Y476201D01*
X885276Y476889D01*
X884859Y477544D01*
X884387Y478160D01*
X883862Y478732D01*
X883290Y479257D01*
X882674Y479729D01*
X882019Y480146D01*
X881331Y480505D01*
X880613Y480802D01*
X879873Y481035D01*
X879115Y481203D01*
X878840Y481240D01*
D02*
G37*
G36*
X859438Y481329D02*
X852168D01*
Y472059D01*
X859438D01*
Y481329D01*
D02*
G37*
G36*
X876300Y481240D02*
X876025Y481203D01*
X875267Y481035D01*
X874527Y480802D01*
X873809Y480505D01*
X873121Y480146D01*
X872466Y479729D01*
X871850Y479257D01*
X871278Y478732D01*
X870753Y478160D01*
X870281Y477544D01*
X869864Y476889D01*
X869505Y476201D01*
X869208Y475484D01*
X868975Y474743D01*
X868807Y473985D01*
X868771Y473710D01*
X876300D01*
Y481240D01*
D02*
G37*
G36*
X1126490Y505732D02*
X1117220D01*
Y499463D01*
X1126490D01*
Y505732D01*
D02*
G37*
G36*
X1138300D02*
X1129030D01*
Y499463D01*
X1138300D01*
Y505732D01*
D02*
G37*
G36*
X1093470Y506640D02*
Y499110D01*
X1101000D01*
X1100963Y499385D01*
X1100795Y500143D01*
X1100562Y500883D01*
X1100265Y501601D01*
X1099906Y502289D01*
X1099489Y502944D01*
X1099017Y503560D01*
X1098492Y504132D01*
X1097920Y504657D01*
X1097304Y505129D01*
X1096649Y505546D01*
X1095961Y505905D01*
X1095244Y506202D01*
X1094503Y506435D01*
X1093745Y506603D01*
X1093470Y506640D01*
D02*
G37*
G36*
X1090930D02*
X1090655Y506603D01*
X1089897Y506435D01*
X1089156Y506202D01*
X1088439Y505905D01*
X1087751Y505546D01*
X1087096Y505129D01*
X1086480Y504657D01*
X1085908Y504132D01*
X1085383Y503560D01*
X1084911Y502944D01*
X1084494Y502289D01*
X1084135Y501601D01*
X1083838Y500883D01*
X1083605Y500143D01*
X1083437Y499385D01*
X1083400Y499110D01*
X1090930D01*
Y506640D01*
D02*
G37*
G36*
X537210Y377190D02*
X529680D01*
X529717Y376915D01*
X529885Y376157D01*
X530118Y375416D01*
X530415Y374699D01*
X530774Y374011D01*
X531191Y373356D01*
X531663Y372740D01*
X532188Y372168D01*
X532760Y371643D01*
X533376Y371171D01*
X534031Y370754D01*
X534719Y370395D01*
X535437Y370098D01*
X536177Y369865D01*
X536935Y369697D01*
X537210Y369660D01*
Y377190D01*
D02*
G37*
G36*
X547280D02*
X539750D01*
Y369660D01*
X540025Y369697D01*
X540783Y369865D01*
X541524Y370098D01*
X542241Y370395D01*
X542929Y370754D01*
X543584Y371171D01*
X544200Y371643D01*
X544772Y372168D01*
X545297Y372740D01*
X545769Y373356D01*
X546186Y374011D01*
X546545Y374699D01*
X546842Y375416D01*
X547075Y376157D01*
X547243Y376915D01*
X547280Y377190D01*
D02*
G37*
G36*
X1140300Y392430D02*
X1127760D01*
X1115220D01*
Y381160D01*
X1122719D01*
X1122957Y379894D01*
X1122063Y379482D01*
X1121203Y379000D01*
X1120384Y378453D01*
X1119610Y377843D01*
X1118886Y377174D01*
X1118217Y376450D01*
X1117607Y375676D01*
X1117060Y374857D01*
X1116578Y373997D01*
X1116166Y373103D01*
X1115825Y372178D01*
X1115557Y371230D01*
X1115365Y370263D01*
X1115283Y369570D01*
X1127760D01*
X1140237D01*
X1140155Y370263D01*
X1139963Y371230D01*
X1139696Y372178D01*
X1139354Y373103D01*
X1138942Y373997D01*
X1138460Y374857D01*
X1137913Y375676D01*
X1137303Y376450D01*
X1136634Y377174D01*
X1135910Y377843D01*
X1135136Y378453D01*
X1134317Y379000D01*
X1133457Y379482D01*
X1132563Y379894D01*
X1132801Y381160D01*
X1140300D01*
Y392430D01*
D02*
G37*
G36*
X604225Y377509D02*
X599948D01*
Y366382D01*
X600928D01*
X601358Y366410D01*
X601781Y366494D01*
X602190Y366633D01*
X602576Y366824D01*
X602935Y367063D01*
X603259Y367348D01*
X603544Y367672D01*
X603783Y368031D01*
X603974Y368417D01*
X604113Y368826D01*
X604197Y369249D01*
X604225Y369679D01*
Y377509D01*
D02*
G37*
G36*
X559308Y391176D02*
X558328D01*
X557898Y391148D01*
X557475Y391064D01*
X557066Y390925D01*
X556679Y390734D01*
X556321Y390495D01*
X555997Y390210D01*
X555712Y389886D01*
X555473Y389528D01*
X555282Y389141D01*
X555143Y388732D01*
X555059Y388309D01*
X555031Y387879D01*
Y380049D01*
X559308D01*
Y391176D01*
D02*
G37*
G36*
X600928D02*
X599948D01*
Y380049D01*
X604225D01*
Y387879D01*
X604197Y388309D01*
X604113Y388732D01*
X603974Y389141D01*
X603783Y389528D01*
X603544Y389886D01*
X603259Y390210D01*
X602935Y390495D01*
X602576Y390734D01*
X602190Y390925D01*
X601781Y391064D01*
X601358Y391148D01*
X600928Y391176D01*
D02*
G37*
G36*
X537210Y387259D02*
X536935Y387223D01*
X536177Y387055D01*
X535437Y386822D01*
X534719Y386525D01*
X534031Y386166D01*
X533376Y385749D01*
X532760Y385277D01*
X532188Y384752D01*
X531663Y384180D01*
X531191Y383564D01*
X530774Y382909D01*
X530415Y382221D01*
X530118Y381503D01*
X529885Y380763D01*
X529717Y380005D01*
X529680Y379730D01*
X537210D01*
Y387259D01*
D02*
G37*
G36*
X539750D02*
Y379730D01*
X547280D01*
X547243Y380005D01*
X547075Y380763D01*
X546842Y381503D01*
X546545Y382221D01*
X546186Y382909D01*
X545769Y383564D01*
X545297Y384180D01*
X544772Y384752D01*
X544200Y385277D01*
X543584Y385749D01*
X542929Y386166D01*
X542241Y386525D01*
X541524Y386822D01*
X540783Y387055D01*
X540025Y387223D01*
X539750Y387259D01*
D02*
G37*
G36*
X1140300Y406240D02*
X1129030D01*
Y394970D01*
X1140300D01*
Y406240D01*
D02*
G37*
G36*
X1126490D02*
X1115220D01*
Y394970D01*
X1126490D01*
Y406240D01*
D02*
G37*
%LPD*%
D10*
X764540Y417830D02*
D03*
Y385830D02*
D03*
X837311Y288288D02*
D03*
Y256288D02*
D03*
X842391Y335550D02*
D03*
Y367550D02*
D03*
X963930Y316990D02*
D03*
Y284990D02*
D03*
X876300Y418340D02*
D03*
Y450340D02*
D03*
D11*
X313690Y131430D02*
D03*
Y145430D02*
D03*
Y102870D02*
D03*
Y88870D02*
D03*
D12*
X742330Y191770D02*
D03*
X728330D02*
D03*
X782940D02*
D03*
X796940D02*
D03*
D13*
X811911Y258558D02*
D03*
Y288558D02*
D03*
X815721Y365280D02*
D03*
Y335280D02*
D03*
X868581Y318558D02*
D03*
Y288558D02*
D03*
X1127760Y468192D02*
D03*
Y498192D02*
D03*
X468630Y544590D02*
D03*
Y514590D02*
D03*
X54610Y466330D02*
D03*
Y496330D02*
D03*
X142240Y174230D02*
D03*
Y204230D02*
D03*
X596900Y105650D02*
D03*
Y135650D02*
D03*
X424180Y109460D02*
D03*
Y139460D02*
D03*
X993140Y229630D02*
D03*
Y199630D02*
D03*
X992217Y317260D02*
D03*
Y287260D02*
D03*
X509270Y326348D02*
D03*
Y356347D02*
D03*
Y404890D02*
D03*
Y374890D02*
D03*
X734441Y352538D02*
D03*
Y382538D02*
D03*
X167640Y204230D02*
D03*
Y174230D02*
D03*
D14*
X54610Y437220D02*
D03*
Y416220D02*
D03*
X1127760Y448650D02*
D03*
Y427650D02*
D03*
X468630Y573700D02*
D03*
Y594700D02*
D03*
D15*
X193450Y180280D02*
D03*
Y188280D02*
D03*
Y196280D02*
D03*
Y204280D02*
D03*
Y212280D02*
D03*
Y220280D02*
D03*
Y228280D02*
D03*
Y236280D02*
D03*
X276450D02*
D03*
Y228280D02*
D03*
Y220280D02*
D03*
Y212280D02*
D03*
Y204280D02*
D03*
Y196280D02*
D03*
Y188280D02*
D03*
Y180280D02*
D03*
D16*
X206950Y249780D02*
D03*
X214950D02*
D03*
X222950D02*
D03*
X230950D02*
D03*
X238950D02*
D03*
X246950D02*
D03*
X254950D02*
D03*
X262950D02*
D03*
Y166780D02*
D03*
X254950D02*
D03*
X246950D02*
D03*
X238950D02*
D03*
X230950D02*
D03*
X222950D02*
D03*
X214950D02*
D03*
X206950D02*
D03*
D17*
X195820Y306070D02*
D03*
X225820D02*
D03*
X195820Y280670D02*
D03*
X225820D02*
D03*
X200900Y123190D02*
D03*
X230900D02*
D03*
X572530Y519430D02*
D03*
X542530D02*
D03*
X609840Y272192D02*
D03*
X639840D02*
D03*
X609840Y247650D02*
D03*
X639840D02*
D03*
X712230Y345440D02*
D03*
X682230D02*
D03*
X296150Y284480D02*
D03*
X326150D02*
D03*
D18*
X285750Y104581D02*
D03*
Y145222D02*
D03*
D19*
X230630Y98147D02*
D03*
X198630D02*
D03*
X818898Y470789D02*
D03*
X850898D02*
D03*
D20*
X843026Y404749D02*
D03*
Y417449D02*
D03*
Y430149D02*
D03*
Y442849D02*
D03*
X793750D02*
D03*
Y430149D02*
D03*
Y417449D02*
D03*
Y404749D02*
D03*
X462280Y124460D02*
D03*
Y111760D02*
D03*
Y99060D02*
D03*
Y86360D02*
D03*
Y73660D02*
D03*
Y60960D02*
D03*
Y48260D02*
D03*
Y35560D02*
D03*
X556260D02*
D03*
Y48260D02*
D03*
Y60960D02*
D03*
Y73660D02*
D03*
Y86360D02*
D03*
Y99060D02*
D03*
Y111760D02*
D03*
Y124460D02*
D03*
D21*
X560578Y378779D02*
D03*
X573278D02*
D03*
X585978D02*
D03*
X598678D02*
D03*
Y428179D02*
D03*
X585978D02*
D03*
X573278D02*
D03*
X560578D02*
D03*
D22*
X1027460Y330200D02*
D03*
Y317500D02*
D03*
Y304800D02*
D03*
Y292100D02*
D03*
X1076960D02*
D03*
Y304800D02*
D03*
Y317500D02*
D03*
Y330200D02*
D03*
D23*
X787781Y289306D02*
D03*
Y295910D02*
D03*
Y302006D02*
D03*
Y308610D02*
D03*
Y314706D02*
D03*
Y321310D02*
D03*
Y327406D02*
D03*
Y334010D02*
D03*
X734441D02*
D03*
Y327406D02*
D03*
Y321310D02*
D03*
Y314706D02*
D03*
Y308610D02*
D03*
Y302006D02*
D03*
Y295910D02*
D03*
Y289306D02*
D03*
D24*
X346140Y284480D02*
D03*
X370140Y293980D02*
D03*
Y274980D02*
D03*
D25*
X275930Y303530D02*
D03*
X254930D02*
D03*
D26*
X234950Y374650D02*
D03*
X167640D02*
D03*
X588010Y200660D02*
D03*
D27*
X563880Y326390D02*
D03*
D28*
X222950Y158180D02*
Y166780D01*
X230950Y249780D02*
Y260100D01*
X246950Y142810D02*
Y166780D01*
X254950Y249780D02*
Y261940D01*
X349250Y218440D02*
X374650D01*
Y193040D02*
X379730D01*
X279400Y259080D02*
X358140D01*
X270100Y249780D02*
X279400Y259080D01*
X302320Y236280D02*
X308610Y242570D01*
X276450Y236280D02*
X302320D01*
X276760Y227970D02*
X314657D01*
X276450Y228280D02*
X276760Y227970D01*
X314967Y228280D02*
X339410D01*
X314657Y227970D02*
X314967Y228280D01*
X262950Y249780D02*
X270100D01*
X166370Y204470D02*
X166560Y204280D01*
X246950Y166780D02*
Y180340D01*
X254950Y238440D02*
Y249780D01*
X245110Y142810D02*
X246950D01*
X230950Y149046D02*
Y166780D01*
X142240Y204899D02*
Y229441D01*
X372300Y98870D02*
X384810Y86360D01*
X449580D01*
X381000Y73660D02*
X449580D01*
X355600Y99060D02*
X381000Y73660D01*
X262950Y156150D02*
Y166780D01*
Y156150D02*
X274320Y144780D01*
X284480D01*
X254950Y151450D02*
Y166780D01*
Y151450D02*
X264160Y142240D01*
Y111760D02*
Y142240D01*
Y111760D02*
X271339Y104581D01*
X285750D01*
X276450Y204280D02*
X287210D01*
X355600Y135890D01*
Y99060D02*
Y135890D01*
X276750Y212090D02*
X298450D01*
X372300Y138240D01*
Y98870D02*
Y138240D01*
X276450Y220280D02*
X332170D01*
X359410Y193040D01*
X339410Y228280D02*
X349250Y218440D01*
X359410Y193040D02*
X374650D01*
Y218440D02*
X379730D01*
X214630Y149860D02*
X222950Y158180D01*
X217170Y182880D02*
X222950Y177100D01*
Y166780D02*
Y177100D01*
X238950Y166780D02*
Y176340D01*
X233680Y181610D02*
X238950Y176340D01*
X230950Y237490D02*
Y249780D01*
X141827Y204470D02*
X166370D01*
X166560Y204280D02*
X193450D01*
X358140Y259080D02*
X374650Y242570D01*
D29*
X596900Y57150D02*
Y78740D01*
X749300Y167640D02*
X763270D01*
X816610Y233680D02*
X824230D01*
X875540Y449580D02*
X876300Y450340D01*
X877570Y472440D02*
Y474980D01*
X445770Y124460D02*
X462280D01*
X585978Y410718D02*
Y428179D01*
X552450Y124460D02*
X556260D01*
X993140Y229630D02*
Y254000D01*
X594360Y334010D02*
Y345440D01*
X675640Y271780D02*
X685800Y281940D01*
X581660Y247650D02*
X608330D01*
X638330D02*
X639840D01*
X811911Y238379D02*
X816610Y233680D01*
X811911Y238379D02*
Y258558D01*
X824230Y233680D02*
X833120D01*
X837311Y237871D01*
Y256288D01*
X876300Y450340D02*
X877570Y451610D01*
X850898Y470789D02*
X873379D01*
X877570Y451610D02*
Y472440D01*
X791210Y372110D02*
X798040Y365280D01*
X815721D01*
X817991Y367550D01*
X842391D01*
X791210Y372110D02*
Y383540D01*
X788920Y385830D02*
X791210Y383540D01*
X764540Y385830D02*
X788920D01*
X763270Y167640D02*
X775970D01*
X782940Y174610D01*
Y191770D01*
X742330Y174610D02*
X749300Y167640D01*
X742330Y174610D02*
Y191770D01*
X575310Y35560D02*
X596900Y57150D01*
X556260Y35560D02*
X575310D01*
X596900Y78740D02*
Y105650D01*
X578880D02*
X596900D01*
X572770Y111760D02*
X578880Y105650D01*
X556260Y111760D02*
X572770D01*
X530860Y302260D02*
Y321310D01*
X525822Y326348D02*
X530860Y321310D01*
X509270Y326348D02*
X525822D01*
X538480Y378460D02*
X538799Y378779D01*
X560578D01*
X516890Y374890D02*
Y377049D01*
Y356249D02*
Y356347D01*
X598678Y378779D02*
X611189D01*
X598678Y428179D02*
X617031D01*
X484110Y514590D02*
X488950Y519430D01*
X1092200Y497840D02*
X1092552Y498192D01*
X1127760D01*
X963930Y200660D02*
Y284990D01*
X964960Y199630D02*
X993140D01*
X963930Y200660D02*
X964960Y199630D01*
X863600Y449580D02*
X875540D01*
X856869Y442849D02*
X863600Y449580D01*
X843026Y442849D02*
X856869D01*
X850898Y455928D02*
Y470789D01*
X843026Y448056D02*
X850898Y455928D01*
X843026Y442849D02*
Y448056D01*
X285130Y145430D02*
X313690D01*
X639840Y247650D02*
X675640D01*
X516890Y356249D02*
X567958D01*
X580390Y405130D02*
X585978Y410718D01*
X594360Y345440D02*
Y346710D01*
X585978Y355092D02*
X594360Y346710D01*
X509270Y356347D02*
Y374890D01*
X843026Y417449D02*
X859790D01*
X767969Y430149D02*
X793750D01*
X824738D02*
X843026D01*
X764540Y426720D02*
X767969Y430149D01*
X764540Y420370D02*
Y426720D01*
X689991Y385318D02*
Y401068D01*
X573278Y428179D02*
Y450850D01*
X585978Y428179D02*
Y448818D01*
X530860Y73660D02*
X556260D01*
X538480Y86360D02*
X556260D01*
X699770Y295910D02*
X706120D01*
X685800Y281940D02*
X699770Y295910D01*
X675640Y247650D02*
X707390Y279400D01*
X640253Y271780D02*
X675640D01*
X639840Y272192D02*
X640253Y271780D01*
X564292Y272192D02*
X609840D01*
X879941Y318558D02*
X880239Y318260D01*
X556260Y124460D02*
X576580D01*
X1008380Y317500D02*
X1027460D01*
X462280Y124460D02*
X464820D01*
X468630Y547130D02*
Y573700D01*
X54610Y437220D02*
Y463790D01*
X254950Y211770D02*
Y238440D01*
X818898Y435989D02*
Y466979D01*
Y435989D02*
X824738Y430149D01*
X573278Y361569D02*
Y378779D01*
X1076960Y330200D02*
X1097280D01*
X567958Y356249D02*
X573278Y361569D01*
X992217Y287260D02*
X993140Y286338D01*
X1061750Y304800D02*
X1076960D01*
X993140Y254000D02*
Y286338D01*
X585978Y355092D02*
Y378779D01*
X838581Y288558D02*
X838821Y288798D01*
X839851Y289828D01*
X246380Y180340D02*
Y203200D01*
X254950Y211770D01*
X230950Y149046D02*
X231140D01*
X449580Y73660D02*
X462280D01*
X449580Y86360D02*
X462280D01*
X40300Y416220D02*
X54610D01*
X29210Y405130D02*
X40300Y416220D01*
X284480Y144780D02*
X285130Y145430D01*
X236220Y280670D02*
X254950Y261940D01*
X326150Y284480D02*
X346140D01*
X326150Y284480D02*
X326150Y284480D01*
X296150Y284480D02*
Y296940D01*
X289560Y303530D02*
X296150Y296940D01*
X275930Y303530D02*
X289560D01*
X370140Y274980D02*
X394310D01*
X379730Y218440D02*
X394970D01*
X401320Y224790D01*
Y267970D01*
X394310Y274980D02*
X401320Y267970D01*
X254930Y303530D02*
Y331130D01*
X255270Y331470D01*
X1127760Y448650D02*
Y468192D01*
X563880Y326390D02*
X586740D01*
X594360Y334010D01*
X285750Y91440D02*
Y104581D01*
Y91440D02*
X288320Y88870D01*
X313690D01*
X142240Y374650D02*
X167640D01*
X445770Y124460D02*
Y125730D01*
X760730Y308610D02*
Y327660D01*
X1057910Y300960D02*
X1061750Y304800D01*
X631190Y398780D02*
Y420370D01*
X624840D02*
X631190D01*
X611189Y378779D02*
X631190Y398780D01*
X617031Y428179D02*
X624840Y420370D01*
X1057275Y253365D02*
X1057910Y254000D01*
Y300960D01*
X514350Y90170D02*
X530860Y73660D01*
X514350Y90170D02*
Y222250D01*
X564292Y272192D01*
X530860Y93980D02*
X538480Y86360D01*
X530860Y93980D02*
Y218440D01*
X560070Y247650D01*
X665480Y345440D02*
X679450D01*
X681990Y347980D01*
X560070Y247650D02*
X581660D01*
X873379Y470789D02*
X877570Y474980D01*
D30*
X719963Y308610D02*
X734441D01*
X787781Y289306D02*
X814451D01*
X734441D02*
X741838D01*
X718693Y327406D02*
X734441D01*
X709930Y311150D02*
X713740Y314960D01*
X734441Y327406D02*
X739013D01*
X710071Y340219D02*
Y348488D01*
X712470Y333629D02*
X718693Y327406D01*
X796911Y189738D02*
Y214898D01*
X729101Y191770D02*
Y222758D01*
X712470Y333629D02*
Y337820D01*
X710071Y340219D02*
X712470Y337820D01*
X681990Y329819D02*
X690499Y321310D01*
X706120Y295910D02*
X734441D01*
X717296Y289306D02*
X734441D01*
X707390Y279400D02*
X717296Y289306D01*
X787781Y314706D02*
X804404D01*
X815721Y326023D01*
X775843Y295910D02*
X787781D01*
X771779Y302006D02*
X787781D01*
X729101Y222758D02*
X748411D01*
X772541Y292608D02*
X775843Y295910D01*
X748411Y222758D02*
X764921Y239268D01*
Y295148D01*
X771779Y302006D01*
X772541Y231648D02*
Y292608D01*
Y231648D02*
X777621Y226568D01*
X734441Y334010D02*
Y352538D01*
X719963Y302006D02*
Y308610D01*
Y302006D02*
X734441D01*
X690499Y321310D02*
X734441D01*
X781812Y289306D02*
X787781D01*
X778891Y222758D02*
X789051D01*
X796911Y214898D01*
X787781Y308610D02*
X800100D01*
X803910Y304800D01*
X734441Y308610D02*
X745490D01*
X754380Y317500D01*
X713740Y314960D02*
X740410D01*
X681990Y329819D02*
Y347980D01*
D31*
X838581Y288558D02*
X868581D01*
X516890Y405130D02*
X580390D01*
X585978Y448818D02*
X594360Y457200D01*
X860300Y417959D02*
X876171D01*
X596900Y135650D02*
X613410Y135890D01*
X586500Y135650D02*
X596900D01*
X882791Y288558D02*
X885571Y291338D01*
X964440Y317500D02*
X966090Y319150D01*
X868581Y318558D02*
Y326108D01*
X859409Y335280D02*
X868581Y326108D01*
X815721Y326023D02*
Y335280D01*
X576580Y125730D02*
X586500Y135650D01*
X868581Y288558D02*
X882791D01*
X868581Y318558D02*
X879941D01*
X231140Y139890D02*
Y149046D01*
X242190Y139890D02*
X245110Y142810D01*
X231140Y139890D02*
X242190D01*
X157480Y143510D02*
X167640Y153670D01*
Y171450D01*
X109220Y143510D02*
X157480D01*
X86360Y166370D02*
X109220Y143510D01*
X29210Y346710D02*
Y405130D01*
Y346710D02*
X33020Y342900D01*
X54610D01*
X233680Y334010D02*
X243600D01*
X226060Y326390D02*
X231140Y331470D01*
X233680Y334010D01*
X226060Y280670D02*
X236220D01*
X425450Y147320D02*
X429260Y151130D01*
X424180Y139460D02*
X425450D01*
X439540D01*
X444500Y134500D01*
Y127000D02*
Y134500D01*
Y127000D02*
X445770Y125730D01*
X814451Y288798D02*
X838821D01*
X885571Y291338D02*
X899541D01*
X815721Y335280D02*
X859409D01*
X964440Y317500D02*
X1008380D01*
X880239Y318260D02*
X901063D01*
X230950Y77280D02*
Y139890D01*
X226060Y280670D02*
Y326390D01*
X425450Y139460D02*
Y147320D01*
X572770Y452596D02*
Y534670D01*
D32*
X652780Y514350D02*
Y581660D01*
X597535Y459105D02*
X652780Y514350D01*
Y581660D02*
X664210Y593090D01*
X638810D02*
X650240Y581660D01*
X572770Y543560D02*
Y584200D01*
X560070Y593090D02*
X585470D01*
X1127760Y317500D02*
Y330200D01*
Y342900D01*
X124460Y68580D02*
X220980D01*
X68580Y331470D02*
X231140D01*
X255270D01*
X396240D01*
X425450Y302260D01*
Y152400D02*
Y302260D01*
X86360Y106680D02*
X124460Y68580D01*
X86360Y106680D02*
Y166370D01*
Y168910D02*
Y330200D01*
X67310D02*
X86360D01*
X54610Y342900D02*
X67310Y330200D01*
X55880Y318770D02*
X67310Y330200D01*
X68580Y331470D01*
D33*
X617220Y135890D02*
X821690D01*
X880110Y417830D02*
X906780D01*
X963930Y321310D02*
Y360680D01*
X906780Y417830D02*
X963930Y360680D01*
X821690Y135890D02*
X933450Y247650D01*
X901063Y318260D02*
X932180D01*
X962660D01*
X932180D02*
X933450Y247650D01*
X963930Y321310D02*
X966090Y319150D01*
D34*
X86360Y166370D02*
Y168910D01*
X220980Y68580D02*
X222250D01*
X230950Y77280D01*
X1097280Y330200D02*
X1127760D01*
D35*
X560070Y593090D02*
Y613410D01*
X549910Y623570D02*
X560070Y613410D01*
X468630Y594700D02*
Y610870D01*
X481330Y623570D01*
X549910D01*
X1127760Y427650D02*
X1149690D01*
X1160780Y416560D01*
Y355600D02*
Y416560D01*
X1148080Y342900D02*
X1160780Y355600D01*
X1127760Y342900D02*
X1148080D01*
D36*
X134620Y440690D02*
Y463683D01*
X146116D01*
X149948Y459851D01*
Y452186D01*
X146116Y448354D01*
X134620D01*
X142284D02*
X149948Y440690D01*
X172941Y463683D02*
X157613D01*
Y440690D01*
X172941D01*
X157613Y452186D02*
X165277D01*
X195933Y459851D02*
X192101Y463683D01*
X184437D01*
X180605Y459851D01*
Y456018D01*
X184437Y452186D01*
X192101D01*
X195933Y448354D01*
Y444522D01*
X192101Y440690D01*
X184437D01*
X180605Y444522D01*
X218926Y463683D02*
X203598D01*
Y440690D01*
X218926D01*
X203598Y452186D02*
X211262D01*
X226590Y463683D02*
X241919D01*
X234254D01*
Y440690D01*
X17780Y538546D02*
X33108D01*
X25444Y546211D02*
Y530882D01*
X56101Y550043D02*
X40773D01*
Y538546D01*
X48437Y542378D01*
X52269D01*
X56101Y538546D01*
Y530882D01*
X52269Y527050D01*
X44605D01*
X40773Y530882D01*
X63765Y550043D02*
Y534714D01*
X71429Y527050D01*
X79093Y534714D01*
Y550043D01*
X86758Y523218D02*
X102086D01*
X109750Y550043D02*
Y527050D01*
X121247D01*
X125079Y530882D01*
Y546211D01*
X121247Y550043D01*
X109750D01*
X1060450Y541086D02*
X1075778D01*
X1068114Y548750D02*
Y533422D01*
X1098771Y552583D02*
X1083443D01*
Y541086D01*
X1091107Y544918D01*
X1094939D01*
X1098771Y541086D01*
Y533422D01*
X1094939Y529590D01*
X1087275D01*
X1083443Y533422D01*
X1106435Y552583D02*
Y537254D01*
X1114099Y529590D01*
X1121764Y537254D01*
Y552583D01*
X1129428Y525758D02*
X1144756D01*
X1152420Y529590D02*
Y544918D01*
X1160084Y552583D01*
X1167749Y544918D01*
Y529590D01*
Y541086D01*
X1152420D01*
X312420Y593156D02*
X327748D01*
X320084Y600821D02*
Y585492D01*
X350741Y581660D02*
X335413D01*
X350741Y596988D01*
Y600821D01*
X346909Y604653D01*
X339245D01*
X335413Y600821D01*
X358405Y604653D02*
X373733D01*
Y600821D01*
X358405Y585492D01*
Y581660D01*
X381398Y604653D02*
Y589324D01*
X389062Y581660D01*
X396726Y589324D01*
Y604653D01*
X774700D02*
Y585492D01*
X778532Y581660D01*
X786196D01*
X790028Y585492D01*
Y604653D01*
X801525Y581660D02*
X809189D01*
X813021Y585492D01*
Y593156D01*
X809189Y596988D01*
X801525D01*
X797693Y593156D01*
Y585492D01*
X801525Y581660D01*
X820685Y596988D02*
Y585492D01*
X824517Y581660D01*
X836013D01*
Y596988D01*
X847510Y600821D02*
Y596988D01*
X843678D01*
X851342D01*
X847510D01*
Y585492D01*
X851342Y581660D01*
D37*
X44450Y44450D02*
D03*
X1141730D02*
D03*
Y593090D02*
D03*
X44450D02*
D03*
D38*
X664210D02*
D03*
X689610D02*
D03*
X638810D02*
D03*
X534670D02*
D03*
X560070D02*
D03*
X509270D02*
D03*
X1127760Y292100D02*
D03*
Y317500D02*
D03*
Y368300D02*
D03*
Y342900D02*
D03*
Y266700D02*
D03*
X899160Y292100D02*
D03*
X54610Y317500D02*
D03*
Y342900D02*
D03*
Y292100D02*
D03*
X374650Y193040D02*
D03*
Y218440D02*
D03*
Y167640D02*
D03*
X334010Y420370D02*
D03*
X308610D02*
D03*
X359410D02*
D03*
D39*
X715010Y593090D02*
D03*
X585470D02*
D03*
X283210Y420370D02*
D03*
D40*
X1127760Y393700D02*
D03*
X899160Y317500D02*
D03*
X54610Y368300D02*
D03*
X374650Y243840D02*
D03*
D41*
X729101Y222758D02*
D03*
X778891D02*
D03*
D42*
X664210Y175260D02*
D03*
Y200660D02*
D03*
X588010Y175260D02*
D03*
D43*
X552610Y480060D02*
D03*
D44*
X572610D02*
D03*
D45*
X877570Y472440D02*
D03*
X791210Y372110D02*
D03*
X530860Y302260D02*
D03*
X1092200Y497840D02*
D03*
X596900Y78740D02*
D03*
X308610Y242570D02*
D03*
X594360Y345440D02*
D03*
X763270Y167640D02*
D03*
X538480Y378460D02*
D03*
X685800Y281940D02*
D03*
X664210Y246380D02*
D03*
X564292Y272192D02*
D03*
X833120Y311150D02*
D03*
X154940Y110490D02*
D03*
X167640Y297180D02*
D03*
X114300Y189230D02*
D03*
X142240Y229441D02*
D03*
Y374650D02*
D03*
X332740Y116840D02*
D03*
X393700Y297180D02*
D03*
X224790Y411480D02*
D03*
X824230Y233680D02*
D03*
X993140Y254000D02*
D03*
X631190Y420370D02*
D03*
X1057275Y253365D02*
D03*
X665480Y345440D02*
D03*
X581660Y247650D02*
D03*
M02*
